ISO-10303-21;
HEADER;
/* Generated by software containing ST-Developer
 * from STEP Tools, Inc. (www.steptools.com) 
 */
/* OPTION: strings as raw bytes, not using required /X/ escapes */

FILE_DESCRIPTION(
/* description */ ('Unknown'),
/* implementation_level */ '2;1');

FILE_NAME(
/* name */ '0121-Â±èÂπïÊîØÊû∂',
/* time_stamp */ '2026-05-26T19:39:58+08:00',
/* author */ ('Unknown'),
/* organization */ ('Unknown'),
/* preprocessor_version */ 'ST-DEVELOPER v16.7',
/* originating_system */ 'Solid Edge',
/* authorisation */ 'Unknown');

FILE_SCHEMA (('AUTOMOTIVE_DESIGN {1 0 10303 214 3 1 1}'));
ENDSEC;

DATA;
#10=PROPERTY_DEFINITION_REPRESENTATION(#14,#12);
#11=PROPERTY_DEFINITION_REPRESENTATION(#15,#13);
#12=REPRESENTATION('',(#16),#1662);
#13=REPRESENTATION('',(#17),#1662);
#14=PROPERTY_DEFINITION('pmi validation property','',#1667);
#15=PROPERTY_DEFINITION('pmi validation property','',#1667);
#16=VALUE_REPRESENTATION_ITEM('number of annotations',COUNT_MEASURE(0.));
#17=VALUE_REPRESENTATION_ITEM('number of views',COUNT_MEASURE(0.));
#18=SHAPE_REPRESENTATION_RELATIONSHIP('','',#1122,#19);
#19=ADVANCED_BREP_SHAPE_REPRESENTATION('',(#1120),#1662);
#20=CYLINDRICAL_SURFACE('',#1134,2.4585);
#21=CYLINDRICAL_SURFACE('',#1146,1.);
#22=CYLINDRICAL_SURFACE('',#1149,4.);
#23=CYLINDRICAL_SURFACE('',#1156,2.4585);
#24=CYLINDRICAL_SURFACE('',#1158,2.4585);
#25=CYLINDRICAL_SURFACE('',#1160,2.4585);
#26=CYLINDRICAL_SURFACE('',#1173,0.999999999999999);
#27=CYLINDRICAL_SURFACE('',#1174,0.999999999999997);
#28=CYLINDRICAL_SURFACE('',#1175,0.999999999999997);
#29=CYLINDRICAL_SURFACE('',#1176,0.999999999999997);
#30=CYLINDRICAL_SURFACE('',#1184,0.999999999999999);
#31=CYLINDRICAL_SURFACE('',#1185,5.);
#32=CYLINDRICAL_SURFACE('',#1196,0.999999999999999);
#33=CYLINDRICAL_SURFACE('',#1197,5.);
#34=CYLINDRICAL_SURFACE('',#1198,2.75);
#35=CYLINDRICAL_SURFACE('',#1199,2.75);
#36=CYLINDRICAL_SURFACE('',#1200,2.75);
#37=CYLINDRICAL_SURFACE('',#1201,2.75);
#38=CIRCLE('',#1127,2.75);
#39=CIRCLE('',#1128,2.75);
#40=CIRCLE('',#1132,5.);
#41=CIRCLE('',#1133,0.999999999999999);
#42=CIRCLE('',#1135,2.4585);
#43=CIRCLE('',#1136,2.4585);
#44=CIRCLE('',#1138,0.999999999999997);
#45=CIRCLE('',#1139,0.999999999999997);
#46=CIRCLE('',#1140,0.999999999999997);
#47=CIRCLE('',#1141,0.999999999999999);
#48=CIRCLE('',#1142,2.4585);
#49=CIRCLE('',#1143,2.4585);
#50=CIRCLE('',#1144,2.4585);
#51=CIRCLE('',#1147,1.);
#52=CIRCLE('',#1148,1.);
#53=CIRCLE('',#1150,4.);
#54=CIRCLE('',#1151,4.);
#55=CIRCLE('',#1153,5.);
#56=CIRCLE('',#1154,0.999999999999999);
#57=CIRCLE('',#1157,2.4585);
#58=CIRCLE('',#1159,2.4585);
#59=CIRCLE('',#1161,2.4585);
#60=CIRCLE('',#1165,0.999999999999997);
#61=CIRCLE('',#1166,0.999999999999997);
#62=CIRCLE('',#1167,0.999999999999997);
#63=CIRCLE('',#1168,0.999999999999999);
#64=CIRCLE('',#1178,2.75);
#65=CIRCLE('',#1179,2.75);
#66=CIRCLE('',#1181,5.);
#67=CIRCLE('',#1182,0.999999999999999);
#68=CIRCLE('',#1187,5.);
#69=CIRCLE('',#1188,0.999999999999999);
#70=CIRCLE('',#1190,2.75);
#71=CIRCLE('',#1191,2.75);
#72=CIRCLE('',#1193,2.75);
#73=CIRCLE('',#1194,2.75);
#74=ORIENTED_EDGE('',*,*,#292,.T.);
#75=ORIENTED_EDGE('',*,*,#293,.F.);
#76=ORIENTED_EDGE('',*,*,#294,.F.);
#77=ORIENTED_EDGE('',*,*,#295,.F.);
#78=ORIENTED_EDGE('',*,*,#296,.F.);
#79=ORIENTED_EDGE('',*,*,#297,.F.);
#80=ORIENTED_EDGE('',*,*,#298,.T.);
#81=ORIENTED_EDGE('',*,*,#299,.F.);
#82=ORIENTED_EDGE('',*,*,#300,.F.);
#83=ORIENTED_EDGE('',*,*,#301,.F.);
#84=ORIENTED_EDGE('',*,*,#302,.F.);
#85=ORIENTED_EDGE('',*,*,#303,.T.);
#86=ORIENTED_EDGE('',*,*,#304,.F.);
#87=ORIENTED_EDGE('',*,*,#305,.T.);
#88=ORIENTED_EDGE('',*,*,#293,.T.);
#89=ORIENTED_EDGE('',*,*,#306,.T.);
#90=ORIENTED_EDGE('',*,*,#307,.T.);
#91=ORIENTED_EDGE('',*,*,#296,.T.);
#92=ORIENTED_EDGE('',*,*,#308,.T.);
#93=ORIENTED_EDGE('',*,*,#309,.T.);
#94=ORIENTED_EDGE('',*,*,#310,.F.);
#95=ORIENTED_EDGE('',*,*,#311,.T.);
#96=ORIENTED_EDGE('',*,*,#312,.T.);
#97=ORIENTED_EDGE('',*,*,#313,.F.);
#98=ORIENTED_EDGE('',*,*,#314,.T.);
#99=ORIENTED_EDGE('',*,*,#295,.T.);
#100=ORIENTED_EDGE('',*,*,#315,.T.);
#101=ORIENTED_EDGE('',*,*,#316,.T.);
#102=ORIENTED_EDGE('',*,*,#317,.F.);
#103=ORIENTED_EDGE('',*,*,#318,.T.);
#104=ORIENTED_EDGE('',*,*,#319,.T.);
#105=ORIENTED_EDGE('',*,*,#320,.T.);
#106=ORIENTED_EDGE('',*,*,#298,.F.);
#107=ORIENTED_EDGE('',*,*,#321,.T.);
#108=ORIENTED_EDGE('',*,*,#306,.F.);
#109=ORIENTED_EDGE('',*,*,#292,.F.);
#110=ORIENTED_EDGE('',*,*,#314,.F.);
#111=ORIENTED_EDGE('',*,*,#322,.T.);
#112=ORIENTED_EDGE('',*,*,#323,.F.);
#113=ORIENTED_EDGE('',*,*,#324,.F.);
#114=ORIENTED_EDGE('',*,*,#325,.T.);
#115=ORIENTED_EDGE('',*,*,#326,.T.);
#116=ORIENTED_EDGE('',*,*,#327,.F.);
#117=ORIENTED_EDGE('',*,*,#328,.T.);
#118=ORIENTED_EDGE('',*,*,#329,.F.);
#119=ORIENTED_EDGE('',*,*,#330,.T.);
#120=ORIENTED_EDGE('',*,*,#331,.F.);
#121=ORIENTED_EDGE('',*,*,#332,.T.);
#122=ORIENTED_EDGE('',*,*,#333,.F.);
#123=ORIENTED_EDGE('',*,*,#334,.T.);
#124=ORIENTED_EDGE('',*,*,#335,.T.);
#125=ORIENTED_EDGE('',*,*,#336,.F.);
#126=ORIENTED_EDGE('',*,*,#337,.F.);
#127=ORIENTED_EDGE('',*,*,#338,.T.);
#128=ORIENTED_EDGE('',*,*,#339,.T.);
#129=ORIENTED_EDGE('',*,*,#340,.T.);
#130=ORIENTED_EDGE('',*,*,#341,.F.);
#131=ORIENTED_EDGE('',*,*,#328,.F.);
#132=ORIENTED_EDGE('',*,*,#342,.F.);
#133=ORIENTED_EDGE('',*,*,#343,.F.);
#134=ORIENTED_EDGE('',*,*,#337,.T.);
#135=ORIENTED_EDGE('',*,*,#344,.T.);
#136=ORIENTED_EDGE('',*,*,#345,.T.);
#137=ORIENTED_EDGE('',*,*,#346,.T.);
#138=ORIENTED_EDGE('',*,*,#347,.F.);
#139=ORIENTED_EDGE('',*,*,#335,.F.);
#140=ORIENTED_EDGE('',*,*,#348,.F.);
#141=ORIENTED_EDGE('',*,*,#339,.F.);
#142=ORIENTED_EDGE('',*,*,#349,.F.);
#143=ORIENTED_EDGE('',*,*,#312,.F.);
#144=ORIENTED_EDGE('',*,*,#350,.F.);
#145=ORIENTED_EDGE('',*,*,#351,.T.);
#146=ORIENTED_EDGE('',*,*,#352,.T.);
#147=ORIENTED_EDGE('',*,*,#316,.F.);
#148=ORIENTED_EDGE('',*,*,#304,.T.);
#149=ORIENTED_EDGE('',*,*,#353,.T.);
#150=ORIENTED_EDGE('',*,*,#319,.F.);
#151=ORIENTED_EDGE('',*,*,#354,.F.);
#152=ORIENTED_EDGE('',*,*,#309,.F.);
#153=ORIENTED_EDGE('',*,*,#355,.T.);
#154=ORIENTED_EDGE('',*,*,#356,.F.);
#155=ORIENTED_EDGE('',*,*,#357,.T.);
#156=ORIENTED_EDGE('',*,*,#346,.F.);
#157=ORIENTED_EDGE('',*,*,#358,.T.);
#158=ORIENTED_EDGE('',*,*,#350,.T.);
#159=ORIENTED_EDGE('',*,*,#315,.F.);
#160=ORIENTED_EDGE('',*,*,#294,.T.);
#161=ORIENTED_EDGE('',*,*,#313,.T.);
#162=ORIENTED_EDGE('',*,*,#349,.T.);
#163=ORIENTED_EDGE('',*,*,#338,.F.);
#164=ORIENTED_EDGE('',*,*,#341,.T.);
#165=ORIENTED_EDGE('',*,*,#359,.F.);
#166=ORIENTED_EDGE('',*,*,#342,.T.);
#167=ORIENTED_EDGE('',*,*,#360,.F.);
#168=ORIENTED_EDGE('',*,*,#343,.T.);
#169=ORIENTED_EDGE('',*,*,#361,.F.);
#170=ORIENTED_EDGE('',*,*,#362,.T.);
#171=ORIENTED_EDGE('',*,*,#317,.T.);
#172=ORIENTED_EDGE('',*,*,#352,.F.);
#173=ORIENTED_EDGE('',*,*,#363,.T.);
#174=ORIENTED_EDGE('',*,*,#344,.F.);
#175=ORIENTED_EDGE('',*,*,#336,.T.);
#176=ORIENTED_EDGE('',*,*,#347,.T.);
#177=ORIENTED_EDGE('',*,*,#311,.F.);
#178=ORIENTED_EDGE('',*,*,#354,.T.);
#179=ORIENTED_EDGE('',*,*,#318,.F.);
#180=ORIENTED_EDGE('',*,*,#362,.F.);
#181=ORIENTED_EDGE('',*,*,#310,.T.);
#182=ORIENTED_EDGE('',*,*,#364,.T.);
#183=ORIENTED_EDGE('',*,*,#365,.T.);
#184=ORIENTED_EDGE('',*,*,#366,.T.);
#185=ORIENTED_EDGE('',*,*,#367,.T.);
#186=ORIENTED_EDGE('',*,*,#368,.T.);
#187=ORIENTED_EDGE('',*,*,#369,.T.);
#188=ORIENTED_EDGE('',*,*,#370,.T.);
#189=ORIENTED_EDGE('',*,*,#371,.T.);
#190=ORIENTED_EDGE('',*,*,#361,.T.);
#191=ORIENTED_EDGE('',*,*,#360,.T.);
#192=ORIENTED_EDGE('',*,*,#327,.T.);
#193=ORIENTED_EDGE('',*,*,#359,.T.);
#194=ORIENTED_EDGE('',*,*,#351,.F.);
#195=ORIENTED_EDGE('',*,*,#358,.F.);
#196=ORIENTED_EDGE('',*,*,#345,.F.);
#197=ORIENTED_EDGE('',*,*,#363,.F.);
#198=ORIENTED_EDGE('',*,*,#368,.F.);
#199=ORIENTED_EDGE('',*,*,#372,.T.);
#200=ORIENTED_EDGE('',*,*,#331,.T.);
#201=ORIENTED_EDGE('',*,*,#373,.T.);
#202=ORIENTED_EDGE('',*,*,#370,.F.);
#203=ORIENTED_EDGE('',*,*,#374,.T.);
#204=ORIENTED_EDGE('',*,*,#329,.T.);
#205=ORIENTED_EDGE('',*,*,#375,.T.);
#206=ORIENTED_EDGE('',*,*,#348,.T.);
#207=ORIENTED_EDGE('',*,*,#376,.T.);
#208=ORIENTED_EDGE('',*,*,#364,.F.);
#209=ORIENTED_EDGE('',*,*,#377,.T.);
#210=ORIENTED_EDGE('',*,*,#333,.T.);
#211=ORIENTED_EDGE('',*,*,#378,.T.);
#212=ORIENTED_EDGE('',*,*,#366,.F.);
#213=ORIENTED_EDGE('',*,*,#379,.T.);
#214=ORIENTED_EDGE('',*,*,#371,.F.);
#215=ORIENTED_EDGE('',*,*,#375,.F.);
#216=ORIENTED_EDGE('',*,*,#340,.F.);
#217=ORIENTED_EDGE('',*,*,#377,.F.);
#218=ORIENTED_EDGE('',*,*,#369,.F.);
#219=ORIENTED_EDGE('',*,*,#373,.F.);
#220=ORIENTED_EDGE('',*,*,#330,.F.);
#221=ORIENTED_EDGE('',*,*,#374,.F.);
#222=ORIENTED_EDGE('',*,*,#365,.F.);
#223=ORIENTED_EDGE('',*,*,#376,.F.);
#224=ORIENTED_EDGE('',*,*,#334,.F.);
#225=ORIENTED_EDGE('',*,*,#379,.F.);
#226=ORIENTED_EDGE('',*,*,#367,.F.);
#227=ORIENTED_EDGE('',*,*,#378,.F.);
#228=ORIENTED_EDGE('',*,*,#332,.F.);
#229=ORIENTED_EDGE('',*,*,#372,.F.);
#230=ORIENTED_EDGE('',*,*,#380,.T.);
#231=ORIENTED_EDGE('',*,*,#381,.T.);
#232=ORIENTED_EDGE('',*,*,#356,.T.);
#233=ORIENTED_EDGE('',*,*,#382,.T.);
#234=ORIENTED_EDGE('',*,*,#383,.F.);
#235=ORIENTED_EDGE('',*,*,#384,.T.);
#236=ORIENTED_EDGE('',*,*,#299,.T.);
#237=ORIENTED_EDGE('',*,*,#385,.T.);
#238=ORIENTED_EDGE('',*,*,#302,.T.);
#239=ORIENTED_EDGE('',*,*,#386,.T.);
#240=ORIENTED_EDGE('',*,*,#383,.T.);
#241=ORIENTED_EDGE('',*,*,#387,.T.);
#242=ORIENTED_EDGE('',*,*,#305,.F.);
#243=ORIENTED_EDGE('',*,*,#357,.F.);
#244=ORIENTED_EDGE('',*,*,#384,.F.);
#245=ORIENTED_EDGE('',*,*,#386,.F.);
#246=ORIENTED_EDGE('',*,*,#387,.F.);
#247=ORIENTED_EDGE('',*,*,#382,.F.);
#248=ORIENTED_EDGE('',*,*,#355,.F.);
#249=ORIENTED_EDGE('',*,*,#308,.F.);
#250=ORIENTED_EDGE('',*,*,#353,.F.);
#251=ORIENTED_EDGE('',*,*,#303,.F.);
#252=ORIENTED_EDGE('',*,*,#385,.F.);
#253=ORIENTED_EDGE('',*,*,#320,.F.);
#254=ORIENTED_EDGE('',*,*,#388,.F.);
#255=ORIENTED_EDGE('',*,*,#389,.T.);
#256=ORIENTED_EDGE('',*,*,#297,.T.);
#257=ORIENTED_EDGE('',*,*,#390,.T.);
#258=ORIENTED_EDGE('',*,*,#391,.F.);
#259=ORIENTED_EDGE('',*,*,#392,.F.);
#260=ORIENTED_EDGE('',*,*,#393,.T.);
#261=ORIENTED_EDGE('',*,*,#394,.T.);
#262=ORIENTED_EDGE('',*,*,#323,.T.);
#263=ORIENTED_EDGE('',*,*,#395,.T.);
#264=ORIENTED_EDGE('',*,*,#388,.T.);
#265=ORIENTED_EDGE('',*,*,#396,.F.);
#266=ORIENTED_EDGE('',*,*,#397,.T.);
#267=ORIENTED_EDGE('',*,*,#398,.T.);
#268=ORIENTED_EDGE('',*,*,#391,.T.);
#269=ORIENTED_EDGE('',*,*,#399,.T.);
#270=ORIENTED_EDGE('',*,*,#325,.F.);
#271=ORIENTED_EDGE('',*,*,#400,.T.);
#272=ORIENTED_EDGE('',*,*,#400,.F.);
#273=ORIENTED_EDGE('',*,*,#324,.T.);
#274=ORIENTED_EDGE('',*,*,#396,.T.);
#275=ORIENTED_EDGE('',*,*,#392,.T.);
#276=ORIENTED_EDGE('',*,*,#326,.F.);
#277=ORIENTED_EDGE('',*,*,#399,.F.);
#278=ORIENTED_EDGE('',*,*,#390,.F.);
#279=ORIENTED_EDGE('',*,*,#307,.F.);
#280=ORIENTED_EDGE('',*,*,#322,.F.);
#281=ORIENTED_EDGE('',*,*,#321,.F.);
#282=ORIENTED_EDGE('',*,*,#389,.F.);
#283=ORIENTED_EDGE('',*,*,#395,.F.);
#284=ORIENTED_EDGE('',*,*,#381,.F.);
#285=ORIENTED_EDGE('',*,*,#301,.T.);
#286=ORIENTED_EDGE('',*,*,#380,.F.);
#287=ORIENTED_EDGE('',*,*,#300,.T.);
#288=ORIENTED_EDGE('',*,*,#394,.F.);
#289=ORIENTED_EDGE('',*,*,#398,.F.);
#290=ORIENTED_EDGE('',*,*,#393,.F.);
#291=ORIENTED_EDGE('',*,*,#397,.F.);
#292=EDGE_CURVE('',#401,#402,#477,.T.);
#293=EDGE_CURVE('',#403,#402,#478,.T.);
#294=EDGE_CURVE('',#404,#403,#479,.T.);
#295=EDGE_CURVE('',#401,#404,#480,.T.);
#296=EDGE_CURVE('',#405,#406,#481,.T.);
#297=EDGE_CURVE('',#407,#405,#482,.T.);
#298=EDGE_CURVE('',#407,#408,#483,.T.);
#299=EDGE_CURVE('',#406,#408,#484,.T.);
#300=EDGE_CURVE('',#409,#409,#38,.F.);
#301=EDGE_CURVE('',#410,#410,#39,.F.);
#302=EDGE_CURVE('',#411,#412,#485,.T.);
#303=EDGE_CURVE('',#411,#413,#486,.F.);
#304=EDGE_CURVE('',#414,#413,#487,.T.);
#305=EDGE_CURVE('',#414,#412,#488,.T.);
#306=EDGE_CURVE('',#402,#415,#489,.T.);
#307=EDGE_CURVE('',#415,#405,#490,.T.);
#308=EDGE_CURVE('',#406,#416,#491,.T.);
#309=EDGE_CURVE('',#416,#417,#492,.T.);
#310=EDGE_CURVE('',#418,#417,#493,.T.);
#311=EDGE_CURVE('',#418,#419,#494,.T.);
#312=EDGE_CURVE('',#419,#420,#495,.F.);
#313=EDGE_CURVE('',#403,#420,#496,.T.);
#314=EDGE_CURVE('',#421,#401,#497,.T.);
#315=EDGE_CURVE('',#404,#422,#498,.T.);
#316=EDGE_CURVE('',#422,#423,#499,.F.);
#317=EDGE_CURVE('',#424,#423,#500,.T.);
#318=EDGE_CURVE('',#424,#425,#501,.T.);
#319=EDGE_CURVE('',#425,#426,#502,.T.);
#320=EDGE_CURVE('',#426,#408,#503,.T.);
#321=EDGE_CURVE('',#407,#421,#504,.F.);
#322=EDGE_CURVE('',#421,#427,#40,.F.);
#323=EDGE_CURVE('',#428,#427,#505,.T.);
#324=EDGE_CURVE('',#429,#428,#506,.T.);
#325=EDGE_CURVE('',#429,#430,#507,.T.);
#326=EDGE_CURVE('',#430,#415,#41,.T.);
#327=EDGE_CURVE('',#431,#431,#42,.T.);
#328=EDGE_CURVE('',#432,#432,#43,.F.);
#329=EDGE_CURVE('',#433,#434,#508,.T.);
#330=EDGE_CURVE('',#433,#435,#44,.T.);
#331=EDGE_CURVE('',#436,#435,#509,.T.);
#332=EDGE_CURVE('',#436,#437,#45,.T.);
#333=EDGE_CURVE('',#438,#437,#510,.T.);
#334=EDGE_CURVE('',#438,#439,#46,.T.);
#335=EDGE_CURVE('',#439,#440,#511,.T.);
#336=EDGE_CURVE('',#441,#440,#512,.T.);
#337=EDGE_CURVE('',#442,#441,#513,.T.);
#338=EDGE_CURVE('',#442,#443,#514,.T.);
#339=EDGE_CURVE('',#443,#444,#515,.T.);
#340=EDGE_CURVE('',#444,#434,#47,.T.);
#341=EDGE_CURVE('',#445,#445,#48,.F.);
#342=EDGE_CURVE('',#446,#446,#49,.F.);
#343=EDGE_CURVE('',#447,#447,#50,.F.);
#344=EDGE_CURVE('',#441,#448,#516,.T.);
#345=EDGE_CURVE('',#448,#449,#517,.T.);
#346=EDGE_CURVE('',#449,#442,#518,.T.);
#347=EDGE_CURVE('',#440,#419,#51,.F.);
#348=EDGE_CURVE('',#444,#439,#519,.T.);
#349=EDGE_CURVE('',#420,#443,#52,.T.);
#350=EDGE_CURVE('',#450,#422,#53,.F.);
#351=EDGE_CURVE('',#450,#451,#520,.T.);
#352=EDGE_CURVE('',#451,#423,#54,.F.);
#353=EDGE_CURVE('',#413,#426,#55,.F.);
#354=EDGE_CURVE('',#417,#425,#521,.T.);
#355=EDGE_CURVE('',#416,#452,#56,.T.);
#356=EDGE_CURVE('',#453,#452,#522,.T.);
#357=EDGE_CURVE('',#453,#414,#523,.T.);
#358=EDGE_CURVE('',#449,#450,#524,.T.);
#359=EDGE_CURVE('',#454,#454,#57,.T.);
#360=EDGE_CURVE('',#455,#455,#58,.T.);
#361=EDGE_CURVE('',#456,#456,#59,.T.);
#362=EDGE_CURVE('',#418,#424,#525,.T.);
#363=EDGE_CURVE('',#451,#448,#526,.T.);
#364=EDGE_CURVE('',#457,#458,#527,.T.);
#365=EDGE_CURVE('',#458,#459,#60,.T.);
#366=EDGE_CURVE('',#459,#460,#528,.T.);
#367=EDGE_CURVE('',#460,#461,#61,.T.);
#368=EDGE_CURVE('',#461,#462,#529,.T.);
#369=EDGE_CURVE('',#462,#463,#62,.T.);
#370=EDGE_CURVE('',#463,#464,#530,.T.);
#371=EDGE_CURVE('',#464,#457,#63,.T.);
#372=EDGE_CURVE('',#461,#436,#531,.T.);
#373=EDGE_CURVE('',#435,#462,#532,.F.);
#374=EDGE_CURVE('',#463,#433,#533,.T.);
#375=EDGE_CURVE('',#434,#464,#534,.F.);
#376=EDGE_CURVE('',#439,#458,#535,.F.);
#377=EDGE_CURVE('',#457,#444,#536,.T.);
#378=EDGE_CURVE('',#437,#460,#537,.F.);
#379=EDGE_CURVE('',#459,#438,#538,.T.);
#380=EDGE_CURVE('',#465,#465,#64,.T.);
#381=EDGE_CURVE('',#466,#466,#65,.T.);
#382=EDGE_CURVE('',#452,#467,#539,.F.);
#383=EDGE_CURVE('',#468,#467,#540,.T.);
#384=EDGE_CURVE('',#468,#453,#541,.T.);
#385=EDGE_CURVE('',#408,#411,#66,.F.);
#386=EDGE_CURVE('',#412,#468,#542,.T.);
#387=EDGE_CURVE('',#467,#406,#67,.T.);
#388=EDGE_CURVE('',#469,#470,#543,.T.);
#389=EDGE_CURVE('',#469,#407,#68,.F.);
#390=EDGE_CURVE('',#405,#471,#69,.T.);
#391=EDGE_CURVE('',#472,#471,#544,.T.);
#392=EDGE_CURVE('',#470,#472,#545,.T.);
#393=EDGE_CURVE('',#473,#473,#70,.F.);
#394=EDGE_CURVE('',#474,#474,#71,.F.);
#395=EDGE_CURVE('',#427,#469,#546,.T.);
#396=EDGE_CURVE('',#428,#470,#547,.F.);
#397=EDGE_CURVE('',#475,#475,#72,.T.);
#398=EDGE_CURVE('',#476,#476,#73,.T.);
#399=EDGE_CURVE('',#471,#430,#548,.F.);
#400=EDGE_CURVE('',#429,#472,#549,.T.);
#401=VERTEX_POINT('',#1436);
#402=VERTEX_POINT('',#1437);
#403=VERTEX_POINT('',#1439);
#404=VERTEX_POINT('',#1441);
#405=VERTEX_POINT('',#1445);
#406=VERTEX_POINT('',#1446);
#407=VERTEX_POINT('',#1448);
#408=VERTEX_POINT('',#1450);
#409=VERTEX_POINT('',#1454);
#410=VERTEX_POINT('',#1456);
#411=VERTEX_POINT('',#1458);
#412=VERTEX_POINT('',#1459);
#413=VERTEX_POINT('',#1461);
#414=VERTEX_POINT('',#1463);
#415=VERTEX_POINT('',#1467);
#416=VERTEX_POINT('',#1470);
#417=VERTEX_POINT('',#1472);
#418=VERTEX_POINT('',#1474);
#419=VERTEX_POINT('',#1476);
#420=VERTEX_POINT('',#1478);
#421=VERTEX_POINT('',#1482);
#422=VERTEX_POINT('',#1484);
#423=VERTEX_POINT('',#1486);
#424=VERTEX_POINT('',#1488);
#425=VERTEX_POINT('',#1490);
#426=VERTEX_POINT('',#1492);
#427=VERTEX_POINT('',#1497);
#428=VERTEX_POINT('',#1499);
#429=VERTEX_POINT('',#1501);
#430=VERTEX_POINT('',#1503);
#431=VERTEX_POINT('',#1507);
#432=VERTEX_POINT('',#1509);
#433=VERTEX_POINT('',#1512);
#434=VERTEX_POINT('',#1513);
#435=VERTEX_POINT('',#1515);
#436=VERTEX_POINT('',#1517);
#437=VERTEX_POINT('',#1519);
#438=VERTEX_POINT('',#1521);
#439=VERTEX_POINT('',#1523);
#440=VERTEX_POINT('',#1525);
#441=VERTEX_POINT('',#1527);
#442=VERTEX_POINT('',#1529);
#443=VERTEX_POINT('',#1531);
#444=VERTEX_POINT('',#1533);
#445=VERTEX_POINT('',#1536);
#446=VERTEX_POINT('',#1538);
#447=VERTEX_POINT('',#1540);
#448=VERTEX_POINT('',#1543);
#449=VERTEX_POINT('',#1545);
#450=VERTEX_POINT('',#1553);
#451=VERTEX_POINT('',#1555);
#452=VERTEX_POINT('',#1561);
#453=VERTEX_POINT('',#1563);
#454=VERTEX_POINT('',#1569);
#455=VERTEX_POINT('',#1572);
#456=VERTEX_POINT('',#1575);
#457=VERTEX_POINT('',#1582);
#458=VERTEX_POINT('',#1583);
#459=VERTEX_POINT('',#1585);
#460=VERTEX_POINT('',#1587);
#461=VERTEX_POINT('',#1589);
#462=VERTEX_POINT('',#1591);
#463=VERTEX_POINT('',#1593);
#464=VERTEX_POINT('',#1595);
#465=VERTEX_POINT('',#1615);
#466=VERTEX_POINT('',#1617);
#467=VERTEX_POINT('',#1619);
#468=VERTEX_POINT('',#1621);
#469=VERTEX_POINT('',#1632);
#470=VERTEX_POINT('',#1633);
#471=VERTEX_POINT('',#1636);
#472=VERTEX_POINT('',#1638);
#473=VERTEX_POINT('',#1642);
#474=VERTEX_POINT('',#1644);
#475=VERTEX_POINT('',#1649);
#476=VERTEX_POINT('',#1651);
#477=LINE('',#1435,#550);
#478=LINE('',#1438,#551);
#479=LINE('',#1440,#552);
#480=LINE('',#1442,#553);
#481=LINE('',#1444,#554);
#482=LINE('',#1447,#555);
#483=LINE('',#1449,#556);
#484=LINE('',#1451,#557);
#485=LINE('',#1457,#558);
#486=LINE('',#1460,#559);
#487=LINE('',#1462,#560);
#488=LINE('',#1464,#561);
#489=LINE('',#1466,#562);
#490=LINE('',#1468,#563);
#491=LINE('',#1469,#564);
#492=LINE('',#1471,#565);
#493=LINE('',#1473,#566);
#494=LINE('',#1475,#567);
#495=LINE('',#1477,#568);
#496=LINE('',#1479,#569);
#497=LINE('',#1481,#570);
#498=LINE('',#1483,#571);
#499=LINE('',#1485,#572);
#500=LINE('',#1487,#573);
#501=LINE('',#1489,#574);
#502=LINE('',#1491,#575);
#503=LINE('',#1493,#576);
#504=LINE('',#1494,#577);
#505=LINE('',#1498,#578);
#506=LINE('',#1500,#579);
#507=LINE('',#1502,#580);
#508=LINE('',#1511,#581);
#509=LINE('',#1516,#582);
#510=LINE('',#1520,#583);
#511=LINE('',#1524,#584);
#512=LINE('',#1526,#585);
#513=LINE('',#1528,#586);
#514=LINE('',#1530,#587);
#515=LINE('',#1532,#588);
#516=LINE('',#1542,#589);
#517=LINE('',#1544,#590);
#518=LINE('',#1546,#591);
#519=LINE('',#1549,#592);
#520=LINE('',#1554,#593);
#521=LINE('',#1559,#594);
#522=LINE('',#1562,#595);
#523=LINE('',#1564,#596);
#524=LINE('',#1566,#597);
#525=LINE('',#1577,#598);
#526=LINE('',#1578,#599);
#527=LINE('',#1581,#600);
#528=LINE('',#1586,#601);
#529=LINE('',#1590,#602);
#530=LINE('',#1594,#603);
#531=LINE('',#1598,#604);
#532=LINE('',#1599,#605);
#533=LINE('',#1601,#606);
#534=LINE('',#1602,#607);
#535=LINE('',#1604,#608);
#536=LINE('',#1605,#609);
#537=LINE('',#1607,#610);
#538=LINE('',#1608,#611);
#539=LINE('',#1618,#612);
#540=LINE('',#1620,#613);
#541=LINE('',#1622,#614);
#542=LINE('',#1625,#615);
#543=LINE('',#1631,#616);
#544=LINE('',#1637,#617);
#545=LINE('',#1639,#618);
#546=LINE('',#1645,#619);
#547=LINE('',#1646,#620);
#548=LINE('',#1652,#621);
#549=LINE('',#1653,#622);
#550=VECTOR('',#1206,1000.);
#551=VECTOR('',#1207,1000.);
#552=VECTOR('',#1208,1000.);
#553=VECTOR('',#1209,1000.);
#554=VECTOR('',#1212,1000.);
#555=VECTOR('',#1213,1000.);
#556=VECTOR('',#1214,1000.);
#557=VECTOR('',#1215,1000.);
#558=VECTOR('',#1222,1000.);
#559=VECTOR('',#1223,1000.);
#560=VECTOR('',#1224,1000.);
#561=VECTOR('',#1225,1000.);
#562=VECTOR('',#1228,1000.);
#563=VECTOR('',#1229,1000.);
#564=VECTOR('',#1230,1000.);
#565=VECTOR('',#1231,1000.);
#566=VECTOR('',#1232,1000.);
#567=VECTOR('',#1233,1000.);
#568=VECTOR('',#1234,1000.);
#569=VECTOR('',#1235,1000.);
#570=VECTOR('',#1238,1000.);
#571=VECTOR('',#1239,1000.);
#572=VECTOR('',#1240,1000.);
#573=VECTOR('',#1241,1000.);
#574=VECTOR('',#1242,1000.);
#575=VECTOR('',#1243,1000.);
#576=VECTOR('',#1244,1000.);
#577=VECTOR('',#1245,1000.);
#578=VECTOR('',#1250,1000.);
#579=VECTOR('',#1251,1000.);
#580=VECTOR('',#1252,1000.);
#581=VECTOR('',#1263,1000.);
#582=VECTOR('',#1266,1000.);
#583=VECTOR('',#1269,1000.);
#584=VECTOR('',#1272,1000.);
#585=VECTOR('',#1273,1000.);
#586=VECTOR('',#1274,1000.);
#587=VECTOR('',#1275,1000.);
#588=VECTOR('',#1276,1000.);
#589=VECTOR('',#1287,1000.);
#590=VECTOR('',#1288,1000.);
#591=VECTOR('',#1289,1000.);
#592=VECTOR('',#1294,1000.);
#593=VECTOR('',#1301,1000.);
#594=VECTOR('',#1308,1000.);
#595=VECTOR('',#1311,1000.);
#596=VECTOR('',#1312,1000.);
#597=VECTOR('',#1315,1000.);
#598=VECTOR('',#1330,1000.);
#599=VECTOR('',#1331,1000.);
#600=VECTOR('',#1336,1000.);
#601=VECTOR('',#1339,1000.);
#602=VECTOR('',#1342,1000.);
#603=VECTOR('',#1345,1000.);
#604=VECTOR('',#1350,1000.);
#605=VECTOR('',#1351,1000.);
#606=VECTOR('',#1354,1000.);
#607=VECTOR('',#1355,1000.);
#608=VECTOR('',#1358,1000.);
#609=VECTOR('',#1359,1000.);
#610=VECTOR('',#1362,1000.);
#611=VECTOR('',#1363,1000.);
#612=VECTOR('',#1378,1000.);
#613=VECTOR('',#1379,1000.);
#614=VECTOR('',#1380,1000.);
#615=VECTOR('',#1385,1000.);
#616=VECTOR('',#1396,1000.);
#617=VECTOR('',#1401,1000.);
#618=VECTOR('',#1402,1000.);
#619=VECTOR('',#1409,1000.);
#620=VECTOR('',#1410,1000.);
#621=VECTOR('',#1417,1000.);
#622=VECTOR('',#1418,1000.);
#623=EDGE_LOOP('',(#74,#75,#76,#77));
#624=EDGE_LOOP('',(#78,#79,#80,#81));
#625=EDGE_LOOP('',(#82));
#626=EDGE_LOOP('',(#83));
#627=EDGE_LOOP('',(#84,#85,#86,#87));
#628=EDGE_LOOP('',(#88,#89,#90,#91,#92,#93,#94,#95,#96,#97));
#629=EDGE_LOOP('',(#98,#99,#100,#101,#102,#103,#104,#105,#106,#107));
#630=EDGE_LOOP('',(#108,#109,#110,#111,#112,#113,#114,#115));
#631=EDGE_LOOP('',(#116));
#632=EDGE_LOOP('',(#117));
#633=EDGE_LOOP('',(#118,#119,#120,#121,#122,#123,#124,#125,#126,#127,#128,
#129));
#634=EDGE_LOOP('',(#130));
#635=EDGE_LOOP('',(#131));
#636=EDGE_LOOP('',(#132));
#637=EDGE_LOOP('',(#133));
#638=EDGE_LOOP('',(#134,#135,#136,#137));
#639=EDGE_LOOP('',(#138,#139,#140,#141,#142,#143));
#640=EDGE_LOOP('',(#144,#145,#146,#147));
#641=EDGE_LOOP('',(#148,#149,#150,#151,#152,#153,#154,#155));
#642=EDGE_LOOP('',(#156,#157,#158,#159,#160,#161,#162,#163));
#643=EDGE_LOOP('',(#164));
#644=EDGE_LOOP('',(#165));
#645=EDGE_LOOP('',(#166));
#646=EDGE_LOOP('',(#167));
#647=EDGE_LOOP('',(#168));
#648=EDGE_LOOP('',(#169));
#649=EDGE_LOOP('',(#170,#171,#172,#173,#174,#175,#176,#177));
#650=EDGE_LOOP('',(#178,#179,#180,#181));
#651=EDGE_LOOP('',(#182,#183,#184,#185,#186,#187,#188,#189));
#652=EDGE_LOOP('',(#190));
#653=EDGE_LOOP('',(#191));
#654=EDGE_LOOP('',(#192));
#655=EDGE_LOOP('',(#193));
#656=EDGE_LOOP('',(#194,#195,#196,#197));
#657=EDGE_LOOP('',(#198,#199,#200,#201));
#658=EDGE_LOOP('',(#202,#203,#204,#205));
#659=EDGE_LOOP('',(#206,#207,#208,#209));
#660=EDGE_LOOP('',(#210,#211,#212,#213));
#661=EDGE_LOOP('',(#214,#215,#216,#217));
#662=EDGE_LOOP('',(#218,#219,#220,#221));
#663=EDGE_LOOP('',(#222,#223,#224,#225));
#664=EDGE_LOOP('',(#226,#227,#228,#229));
#665=EDGE_LOOP('',(#230));
#666=EDGE_LOOP('',(#231));
#667=EDGE_LOOP('',(#232,#233,#234,#235));
#668=EDGE_LOOP('',(#236,#237,#238,#239,#240,#241));
#669=EDGE_LOOP('',(#242,#243,#244,#245));
#670=EDGE_LOOP('',(#246,#247,#248,#249));
#671=EDGE_LOOP('',(#250,#251,#252,#253));
#672=EDGE_LOOP('',(#254,#255,#256,#257,#258,#259));
#673=EDGE_LOOP('',(#260));
#674=EDGE_LOOP('',(#261));
#675=EDGE_LOOP('',(#262,#263,#264,#265));
#676=EDGE_LOOP('',(#266));
#677=EDGE_LOOP('',(#267));
#678=EDGE_LOOP('',(#268,#269,#270,#271));
#679=EDGE_LOOP('',(#272,#273,#274,#275));
#680=EDGE_LOOP('',(#276,#277,#278,#279));
#681=EDGE_LOOP('',(#280,#281,#282,#283));
#682=EDGE_LOOP('',(#284));
#683=EDGE_LOOP('',(#285));
#684=EDGE_LOOP('',(#286));
#685=EDGE_LOOP('',(#287));
#686=EDGE_LOOP('',(#288));
#687=EDGE_LOOP('',(#289));
#688=EDGE_LOOP('',(#290));
#689=EDGE_LOOP('',(#291));
#690=FACE_BOUND('',#623,.T.);
#691=FACE_BOUND('',#624,.T.);
#692=FACE_BOUND('',#625,.T.);
#693=FACE_BOUND('',#626,.T.);
#694=FACE_BOUND('',#627,.T.);
#695=FACE_BOUND('',#628,.T.);
#696=FACE_BOUND('',#629,.T.);
#697=FACE_BOUND('',#630,.T.);
#698=FACE_BOUND('',#631,.T.);
#699=FACE_BOUND('',#632,.T.);
#700=FACE_BOUND('',#633,.T.);
#701=FACE_BOUND('',#634,.T.);
#702=FACE_BOUND('',#635,.T.);
#703=FACE_BOUND('',#636,.T.);
#704=FACE_BOUND('',#637,.T.);
#705=FACE_BOUND('',#638,.T.);
#706=FACE_BOUND('',#639,.T.);
#707=FACE_BOUND('',#640,.T.);
#708=FACE_BOUND('',#641,.T.);
#709=FACE_BOUND('',#642,.T.);
#710=FACE_BOUND('',#643,.T.);
#711=FACE_BOUND('',#644,.T.);
#712=FACE_BOUND('',#645,.T.);
#713=FACE_BOUND('',#646,.T.);
#714=FACE_BOUND('',#647,.T.);
#715=FACE_BOUND('',#648,.T.);
#716=FACE_BOUND('',#649,.T.);
#717=FACE_BOUND('',#650,.T.);
#718=FACE_BOUND('',#651,.T.);
#719=FACE_BOUND('',#652,.T.);
#720=FACE_BOUND('',#653,.T.);
#721=FACE_BOUND('',#654,.T.);
#722=FACE_BOUND('',#655,.T.);
#723=FACE_BOUND('',#656,.T.);
#724=FACE_BOUND('',#657,.T.);
#725=FACE_BOUND('',#658,.T.);
#726=FACE_BOUND('',#659,.T.);
#727=FACE_BOUND('',#660,.T.);
#728=FACE_BOUND('',#661,.T.);
#729=FACE_BOUND('',#662,.T.);
#730=FACE_BOUND('',#663,.T.);
#731=FACE_BOUND('',#664,.T.);
#732=FACE_BOUND('',#665,.T.);
#733=FACE_BOUND('',#666,.T.);
#734=FACE_BOUND('',#667,.T.);
#735=FACE_BOUND('',#668,.T.);
#736=FACE_BOUND('',#669,.T.);
#737=FACE_BOUND('',#670,.T.);
#738=FACE_BOUND('',#671,.T.);
#739=FACE_BOUND('',#672,.T.);
#740=FACE_BOUND('',#673,.T.);
#741=FACE_BOUND('',#674,.T.);
#742=FACE_BOUND('',#675,.T.);
#743=FACE_BOUND('',#676,.T.);
#744=FACE_BOUND('',#677,.T.);
#745=FACE_BOUND('',#678,.T.);
#746=FACE_BOUND('',#679,.T.);
#747=FACE_BOUND('',#680,.T.);
#748=FACE_BOUND('',#681,.T.);
#749=FACE_BOUND('',#682,.T.);
#750=FACE_BOUND('',#683,.T.);
#751=FACE_BOUND('',#684,.T.);
#752=FACE_BOUND('',#685,.T.);
#753=FACE_BOUND('',#686,.T.);
#754=FACE_BOUND('',#687,.T.);
#755=FACE_BOUND('',#688,.T.);
#756=FACE_BOUND('',#689,.T.);
#757=PLANE('',#1124);
#758=PLANE('',#1125);
#759=PLANE('',#1126);
#760=PLANE('',#1129);
#761=PLANE('',#1130);
#762=PLANE('',#1131);
#763=PLANE('',#1137);
#764=PLANE('',#1145);
#765=PLANE('',#1152);
#766=PLANE('',#1155);
#767=PLANE('',#1162);
#768=PLANE('',#1163);
#769=PLANE('',#1164);
#770=PLANE('',#1169);
#771=PLANE('',#1170);
#772=PLANE('',#1171);
#773=PLANE('',#1172);
#774=PLANE('',#1177);
#775=PLANE('',#1180);
#776=PLANE('',#1183);
#777=PLANE('',#1186);
#778=PLANE('',#1189);
#779=PLANE('',#1192);
#780=PLANE('',#1195);
#781=STYLED_ITEM('',(#823),#1077);
#782=STYLED_ITEM('',(#824),#1078);
#783=STYLED_ITEM('',(#825),#1079);
#784=STYLED_ITEM('',(#826),#1080);
#785=STYLED_ITEM('',(#827),#1081);
#786=STYLED_ITEM('',(#828),#1082);
#787=STYLED_ITEM('',(#829),#1083);
#788=STYLED_ITEM('',(#830),#1084);
#789=STYLED_ITEM('',(#831),#1085);
#790=STYLED_ITEM('',(#832),#1086);
#791=STYLED_ITEM('',(#833),#1087);
#792=STYLED_ITEM('',(#834),#1088);
#793=STYLED_ITEM('',(#835),#1089);
#794=STYLED_ITEM('',(#836),#1090);
#795=STYLED_ITEM('',(#837),#1091);
#796=STYLED_ITEM('',(#838),#1092);
#797=STYLED_ITEM('',(#839),#1093);
#798=STYLED_ITEM('',(#840),#1094);
#799=STYLED_ITEM('',(#841),#1095);
#800=STYLED_ITEM('',(#842),#1096);
#801=STYLED_ITEM('',(#843),#1097);
#802=STYLED_ITEM('',(#844),#1098);
#803=STYLED_ITEM('',(#845),#1099);
#804=STYLED_ITEM('',(#846),#1100);
#805=STYLED_ITEM('',(#847),#1101);
#806=STYLED_ITEM('',(#848),#1102);
#807=STYLED_ITEM('',(#849),#1103);
#808=STYLED_ITEM('',(#850),#1104);
#809=STYLED_ITEM('',(#851),#1105);
#810=STYLED_ITEM('',(#852),#1106);
#811=STYLED_ITEM('',(#853),#1107);
#812=STYLED_ITEM('',(#854),#1108);
#813=STYLED_ITEM('',(#855),#1109);
#814=STYLED_ITEM('',(#856),#1110);
#815=STYLED_ITEM('',(#857),#1111);
#816=STYLED_ITEM('',(#858),#1112);
#817=STYLED_ITEM('',(#859),#1113);
#818=STYLED_ITEM('',(#860),#1114);
#819=STYLED_ITEM('',(#861),#1115);
#820=STYLED_ITEM('',(#862),#1116);
#821=STYLED_ITEM('',(#863),#1117);
#822=STYLED_ITEM('',(#864),#1118);
#823=PRESENTATION_STYLE_ASSIGNMENT((#865));
#824=PRESENTATION_STYLE_ASSIGNMENT((#866));
#825=PRESENTATION_STYLE_ASSIGNMENT((#867));
#826=PRESENTATION_STYLE_ASSIGNMENT((#868));
#827=PRESENTATION_STYLE_ASSIGNMENT((#869));
#828=PRESENTATION_STYLE_ASSIGNMENT((#870));
#829=PRESENTATION_STYLE_ASSIGNMENT((#871));
#830=PRESENTATION_STYLE_ASSIGNMENT((#872));
#831=PRESENTATION_STYLE_ASSIGNMENT((#873));
#832=PRESENTATION_STYLE_ASSIGNMENT((#874));
#833=PRESENTATION_STYLE_ASSIGNMENT((#875));
#834=PRESENTATION_STYLE_ASSIGNMENT((#876));
#835=PRESENTATION_STYLE_ASSIGNMENT((#877));
#836=PRESENTATION_STYLE_ASSIGNMENT((#878));
#837=PRESENTATION_STYLE_ASSIGNMENT((#879));
#838=PRESENTATION_STYLE_ASSIGNMENT((#880));
#839=PRESENTATION_STYLE_ASSIGNMENT((#881));
#840=PRESENTATION_STYLE_ASSIGNMENT((#882));
#841=PRESENTATION_STYLE_ASSIGNMENT((#883));
#842=PRESENTATION_STYLE_ASSIGNMENT((#884));
#843=PRESENTATION_STYLE_ASSIGNMENT((#885));
#844=PRESENTATION_STYLE_ASSIGNMENT((#886));
#845=PRESENTATION_STYLE_ASSIGNMENT((#887));
#846=PRESENTATION_STYLE_ASSIGNMENT((#888));
#847=PRESENTATION_STYLE_ASSIGNMENT((#889));
#848=PRESENTATION_STYLE_ASSIGNMENT((#890));
#849=PRESENTATION_STYLE_ASSIGNMENT((#891));
#850=PRESENTATION_STYLE_ASSIGNMENT((#892));
#851=PRESENTATION_STYLE_ASSIGNMENT((#893));
#852=PRESENTATION_STYLE_ASSIGNMENT((#894));
#853=PRESENTATION_STYLE_ASSIGNMENT((#895));
#854=PRESENTATION_STYLE_ASSIGNMENT((#896));
#855=PRESENTATION_STYLE_ASSIGNMENT((#897));
#856=PRESENTATION_STYLE_ASSIGNMENT((#898));
#857=PRESENTATION_STYLE_ASSIGNMENT((#899));
#858=PRESENTATION_STYLE_ASSIGNMENT((#900));
#859=PRESENTATION_STYLE_ASSIGNMENT((#901));
#860=PRESENTATION_STYLE_ASSIGNMENT((#902));
#861=PRESENTATION_STYLE_ASSIGNMENT((#903));
#862=PRESENTATION_STYLE_ASSIGNMENT((#904));
#863=PRESENTATION_STYLE_ASSIGNMENT((#905));
#864=PRESENTATION_STYLE_ASSIGNMENT((#906));
#865=SURFACE_STYLE_USAGE(.BOTH.,#907);
#866=SURFACE_STYLE_USAGE(.BOTH.,#908);
#867=SURFACE_STYLE_USAGE(.BOTH.,#909);
#868=SURFACE_STYLE_USAGE(.BOTH.,#910);
#869=SURFACE_STYLE_USAGE(.BOTH.,#911);
#870=SURFACE_STYLE_USAGE(.BOTH.,#912);
#871=SURFACE_STYLE_USAGE(.BOTH.,#913);
#872=SURFACE_STYLE_USAGE(.BOTH.,#914);
#873=SURFACE_STYLE_USAGE(.BOTH.,#915);
#874=SURFACE_STYLE_USAGE(.BOTH.,#916);
#875=SURFACE_STYLE_USAGE(.BOTH.,#917);
#876=SURFACE_STYLE_USAGE(.BOTH.,#918);
#877=SURFACE_STYLE_USAGE(.BOTH.,#919);
#878=SURFACE_STYLE_USAGE(.BOTH.,#920);
#879=SURFACE_STYLE_USAGE(.BOTH.,#921);
#880=SURFACE_STYLE_USAGE(.BOTH.,#922);
#881=SURFACE_STYLE_USAGE(.BOTH.,#923);
#882=SURFACE_STYLE_USAGE(.BOTH.,#924);
#883=SURFACE_STYLE_USAGE(.BOTH.,#925);
#884=SURFACE_STYLE_USAGE(.BOTH.,#926);
#885=SURFACE_STYLE_USAGE(.BOTH.,#927);
#886=SURFACE_STYLE_USAGE(.BOTH.,#928);
#887=SURFACE_STYLE_USAGE(.BOTH.,#929);
#888=SURFACE_STYLE_USAGE(.BOTH.,#930);
#889=SURFACE_STYLE_USAGE(.BOTH.,#931);
#890=SURFACE_STYLE_USAGE(.BOTH.,#932);
#891=SURFACE_STYLE_USAGE(.BOTH.,#933);
#892=SURFACE_STYLE_USAGE(.BOTH.,#934);
#893=SURFACE_STYLE_USAGE(.BOTH.,#935);
#894=SURFACE_STYLE_USAGE(.BOTH.,#936);
#895=SURFACE_STYLE_USAGE(.BOTH.,#937);
#896=SURFACE_STYLE_USAGE(.BOTH.,#938);
#897=SURFACE_STYLE_USAGE(.BOTH.,#939);
#898=SURFACE_STYLE_USAGE(.BOTH.,#940);
#899=SURFACE_STYLE_USAGE(.BOTH.,#941);
#900=SURFACE_STYLE_USAGE(.BOTH.,#942);
#901=SURFACE_STYLE_USAGE(.BOTH.,#943);
#902=SURFACE_STYLE_USAGE(.BOTH.,#944);
#903=SURFACE_STYLE_USAGE(.BOTH.,#945);
#904=SURFACE_STYLE_USAGE(.BOTH.,#946);
#905=SURFACE_STYLE_USAGE(.BOTH.,#947);
#906=SURFACE_STYLE_USAGE(.BOTH.,#948);
#907=SURFACE_SIDE_STYLE('',(#949));
#908=SURFACE_SIDE_STYLE('',(#950));
#909=SURFACE_SIDE_STYLE('',(#951));
#910=SURFACE_SIDE_STYLE('',(#952));
#911=SURFACE_SIDE_STYLE('',(#953));
#912=SURFACE_SIDE_STYLE('',(#954));
#913=SURFACE_SIDE_STYLE('',(#955));
#914=SURFACE_SIDE_STYLE('',(#956));
#915=SURFACE_SIDE_STYLE('',(#957));
#916=SURFACE_SIDE_STYLE('',(#958));
#917=SURFACE_SIDE_STYLE('',(#959));
#918=SURFACE_SIDE_STYLE('',(#960));
#919=SURFACE_SIDE_STYLE('',(#961));
#920=SURFACE_SIDE_STYLE('',(#962));
#921=SURFACE_SIDE_STYLE('',(#963));
#922=SURFACE_SIDE_STYLE('',(#964));
#923=SURFACE_SIDE_STYLE('',(#965));
#924=SURFACE_SIDE_STYLE('',(#966));
#925=SURFACE_SIDE_STYLE('',(#967));
#926=SURFACE_SIDE_STYLE('',(#968));
#927=SURFACE_SIDE_STYLE('',(#969));
#928=SURFACE_SIDE_STYLE('',(#970));
#929=SURFACE_SIDE_STYLE('',(#971));
#930=SURFACE_SIDE_STYLE('',(#972));
#931=SURFACE_SIDE_STYLE('',(#973));
#932=SURFACE_SIDE_STYLE('',(#974));
#933=SURFACE_SIDE_STYLE('',(#975));
#934=SURFACE_SIDE_STYLE('',(#976));
#935=SURFACE_SIDE_STYLE('',(#977));
#936=SURFACE_SIDE_STYLE('',(#978));
#937=SURFACE_SIDE_STYLE('',(#979));
#938=SURFACE_SIDE_STYLE('',(#980));
#939=SURFACE_SIDE_STYLE('',(#981));
#940=SURFACE_SIDE_STYLE('',(#982));
#941=SURFACE_SIDE_STYLE('',(#983));
#942=SURFACE_SIDE_STYLE('',(#984));
#943=SURFACE_SIDE_STYLE('',(#985));
#944=SURFACE_SIDE_STYLE('',(#986));
#945=SURFACE_SIDE_STYLE('',(#987));
#946=SURFACE_SIDE_STYLE('',(#988));
#947=SURFACE_SIDE_STYLE('',(#989));
#948=SURFACE_SIDE_STYLE('',(#990));
#949=SURFACE_STYLE_FILL_AREA(#991);
#950=SURFACE_STYLE_FILL_AREA(#992);
#951=SURFACE_STYLE_FILL_AREA(#993);
#952=SURFACE_STYLE_FILL_AREA(#994);
#953=SURFACE_STYLE_FILL_AREA(#995);
#954=SURFACE_STYLE_FILL_AREA(#996);
#955=SURFACE_STYLE_FILL_AREA(#997);
#956=SURFACE_STYLE_FILL_AREA(#998);
#957=SURFACE_STYLE_FILL_AREA(#999);
#958=SURFACE_STYLE_FILL_AREA(#1000);
#959=SURFACE_STYLE_FILL_AREA(#1001);
#960=SURFACE_STYLE_FILL_AREA(#1002);
#961=SURFACE_STYLE_FILL_AREA(#1003);
#962=SURFACE_STYLE_FILL_AREA(#1004);
#963=SURFACE_STYLE_FILL_AREA(#1005);
#964=SURFACE_STYLE_FILL_AREA(#1006);
#965=SURFACE_STYLE_FILL_AREA(#1007);
#966=SURFACE_STYLE_FILL_AREA(#1008);
#967=SURFACE_STYLE_FILL_AREA(#1009);
#968=SURFACE_STYLE_FILL_AREA(#1010);
#969=SURFACE_STYLE_FILL_AREA(#1011);
#970=SURFACE_STYLE_FILL_AREA(#1012);
#971=SURFACE_STYLE_FILL_AREA(#1013);
#972=SURFACE_STYLE_FILL_AREA(#1014);
#973=SURFACE_STYLE_FILL_AREA(#1015);
#974=SURFACE_STYLE_FILL_AREA(#1016);
#975=SURFACE_STYLE_FILL_AREA(#1017);
#976=SURFACE_STYLE_FILL_AREA(#1018);
#977=SURFACE_STYLE_FILL_AREA(#1019);
#978=SURFACE_STYLE_FILL_AREA(#1020);
#979=SURFACE_STYLE_FILL_AREA(#1021);
#980=SURFACE_STYLE_FILL_AREA(#1022);
#981=SURFACE_STYLE_FILL_AREA(#1023);
#982=SURFACE_STYLE_FILL_AREA(#1024);
#983=SURFACE_STYLE_FILL_AREA(#1025);
#984=SURFACE_STYLE_FILL_AREA(#1026);
#985=SURFACE_STYLE_FILL_AREA(#1027);
#986=SURFACE_STYLE_FILL_AREA(#1028);
#987=SURFACE_STYLE_FILL_AREA(#1029);
#988=SURFACE_STYLE_FILL_AREA(#1030);
#989=SURFACE_STYLE_FILL_AREA(#1031);
#990=SURFACE_STYLE_FILL_AREA(#1032);
#991=FILL_AREA_STYLE('',(#1033));
#992=FILL_AREA_STYLE('',(#1034));
#993=FILL_AREA_STYLE('',(#1035));
#994=FILL_AREA_STYLE('',(#1036));
#995=FILL_AREA_STYLE('',(#1037));
#996=FILL_AREA_STYLE('',(#1038));
#997=FILL_AREA_STYLE('',(#1039));
#998=FILL_AREA_STYLE('',(#1040));
#999=FILL_AREA_STYLE('',(#1041));
#1000=FILL_AREA_STYLE('',(#1042));
#1001=FILL_AREA_STYLE('',(#1043));
#1002=FILL_AREA_STYLE('',(#1044));
#1003=FILL_AREA_STYLE('',(#1045));
#1004=FILL_AREA_STYLE('',(#1046));
#1005=FILL_AREA_STYLE('',(#1047));
#1006=FILL_AREA_STYLE('',(#1048));
#1007=FILL_AREA_STYLE('',(#1049));
#1008=FILL_AREA_STYLE('',(#1050));
#1009=FILL_AREA_STYLE('',(#1051));
#1010=FILL_AREA_STYLE('',(#1052));
#1011=FILL_AREA_STYLE('',(#1053));
#1012=FILL_AREA_STYLE('',(#1054));
#1013=FILL_AREA_STYLE('',(#1055));
#1014=FILL_AREA_STYLE('',(#1056));
#1015=FILL_AREA_STYLE('',(#1057));
#1016=FILL_AREA_STYLE('',(#1058));
#1017=FILL_AREA_STYLE('',(#1059));
#1018=FILL_AREA_STYLE('',(#1060));
#1019=FILL_AREA_STYLE('',(#1061));
#1020=FILL_AREA_STYLE('',(#1062));
#1021=FILL_AREA_STYLE('',(#1063));
#1022=FILL_AREA_STYLE('',(#1064));
#1023=FILL_AREA_STYLE('',(#1065));
#1024=FILL_AREA_STYLE('',(#1066));
#1025=FILL_AREA_STYLE('',(#1067));
#1026=FILL_AREA_STYLE('',(#1068));
#1027=FILL_AREA_STYLE('',(#1069));
#1028=FILL_AREA_STYLE('',(#1070));
#1029=FILL_AREA_STYLE('',(#1071));
#1030=FILL_AREA_STYLE('',(#1072));
#1031=FILL_AREA_STYLE('',(#1073));
#1032=FILL_AREA_STYLE('',(#1074));
#1033=FILL_AREA_STYLE_COLOUR('',#1075);
#1034=FILL_AREA_STYLE_COLOUR('',#1075);
#1035=FILL_AREA_STYLE_COLOUR('',#1075);
#1036=FILL_AREA_STYLE_COLOUR('',#1075);
#1037=FILL_AREA_STYLE_COLOUR('',#1075);
#1038=FILL_AREA_STYLE_COLOUR('',#1075);
#1039=FILL_AREA_STYLE_COLOUR('',#1076);
#1040=FILL_AREA_STYLE_COLOUR('',#1075);
#1041=FILL_AREA_STYLE_COLOUR('',#1075);
#1042=FILL_AREA_STYLE_COLOUR('',#1075);
#1043=FILL_AREA_STYLE_COLOUR('',#1075);
#1044=FILL_AREA_STYLE_COLOUR('',#1075);
#1045=FILL_AREA_STYLE_COLOUR('',#1075);
#1046=FILL_AREA_STYLE_COLOUR('',#1076);
#1047=FILL_AREA_STYLE_COLOUR('',#1076);
#1048=FILL_AREA_STYLE_COLOUR('',#1076);
#1049=FILL_AREA_STYLE_COLOUR('',#1075);
#1050=FILL_AREA_STYLE_COLOUR('',#1075);
#1051=FILL_AREA_STYLE_COLOUR('',#1075);
#1052=FILL_AREA_STYLE_COLOUR('',#1075);
#1053=FILL_AREA_STYLE_COLOUR('',#1075);
#1054=FILL_AREA_STYLE_COLOUR('',#1075);
#1055=FILL_AREA_STYLE_COLOUR('',#1075);
#1056=FILL_AREA_STYLE_COLOUR('',#1075);
#1057=FILL_AREA_STYLE_COLOUR('',#1075);
#1058=FILL_AREA_STYLE_COLOUR('',#1075);
#1059=FILL_AREA_STYLE_COLOUR('',#1075);
#1060=FILL_AREA_STYLE_COLOUR('',#1075);
#1061=FILL_AREA_STYLE_COLOUR('',#1075);
#1062=FILL_AREA_STYLE_COLOUR('',#1075);
#1063=FILL_AREA_STYLE_COLOUR('',#1075);
#1064=FILL_AREA_STYLE_COLOUR('',#1075);
#1065=FILL_AREA_STYLE_COLOUR('',#1075);
#1066=FILL_AREA_STYLE_COLOUR('',#1075);
#1067=FILL_AREA_STYLE_COLOUR('',#1075);
#1068=FILL_AREA_STYLE_COLOUR('',#1075);
#1069=FILL_AREA_STYLE_COLOUR('',#1075);
#1070=FILL_AREA_STYLE_COLOUR('',#1075);
#1071=FILL_AREA_STYLE_COLOUR('',#1075);
#1072=FILL_AREA_STYLE_COLOUR('',#1075);
#1073=FILL_AREA_STYLE_COLOUR('',#1075);
#1074=FILL_AREA_STYLE_COLOUR('',#1075);
#1075=COLOUR_RGB('',0.506983280181885,0.531564235687256,0.550000011920929);
#1076=COLOUR_RGB('',0.1875,0.75,0.581249892711639);
#1077=ADVANCED_FACE('',(#690),#757,.F.);
#1078=ADVANCED_FACE('',(#691),#758,.T.);
#1079=ADVANCED_FACE('',(#692,#693,#694),#759,.F.);
#1080=ADVANCED_FACE('',(#695),#760,.T.);
#1081=ADVANCED_FACE('',(#696),#761,.F.);
#1082=ADVANCED_FACE('',(#697),#762,.F.);
#1083=ADVANCED_FACE('',(#698,#699),#20,.F.);
#1084=ADVANCED_FACE('',(#700,#701,#702,#703,#704),#763,.F.);
#1085=ADVANCED_FACE('',(#705),#764,.T.);
#1086=ADVANCED_FACE('',(#706),#21,.F.);
#1087=ADVANCED_FACE('',(#707),#22,.T.);
#1088=ADVANCED_FACE('',(#708),#765,.F.);
#1089=ADVANCED_FACE('',(#709),#766,.F.);
#1090=ADVANCED_FACE('',(#710,#711),#23,.F.);
#1091=ADVANCED_FACE('',(#712,#713),#24,.F.);
#1092=ADVANCED_FACE('',(#714,#715),#25,.F.);
#1093=ADVANCED_FACE('',(#716),#767,.T.);
#1094=ADVANCED_FACE('',(#717),#768,.F.);
#1095=ADVANCED_FACE('',(#718,#719,#720,#721,#722,#723),#769,.F.);
#1096=ADVANCED_FACE('',(#724),#770,.F.);
#1097=ADVANCED_FACE('',(#725),#771,.F.);
#1098=ADVANCED_FACE('',(#726),#772,.F.);
#1099=ADVANCED_FACE('',(#727),#773,.F.);
#1100=ADVANCED_FACE('',(#728),#26,.F.);
#1101=ADVANCED_FACE('',(#729),#27,.F.);
#1102=ADVANCED_FACE('',(#730),#28,.F.);
#1103=ADVANCED_FACE('',(#731),#29,.F.);
#1104=ADVANCED_FACE('',(#732,#733,#734),#774,.T.);
#1105=ADVANCED_FACE('',(#735),#775,.F.);
#1106=ADVANCED_FACE('',(#736),#776,.T.);
#1107=ADVANCED_FACE('',(#737),#30,.F.);
#1108=ADVANCED_FACE('',(#738),#31,.T.);
#1109=ADVANCED_FACE('',(#739),#777,.F.);
#1110=ADVANCED_FACE('',(#740,#741,#742),#778,.T.);
#1111=ADVANCED_FACE('',(#743,#744,#745),#779,.T.);
#1112=ADVANCED_FACE('',(#746),#780,.T.);
#1113=ADVANCED_FACE('',(#747),#32,.F.);
#1114=ADVANCED_FACE('',(#748),#33,.T.);
#1115=ADVANCED_FACE('',(#749,#750),#34,.F.);
#1116=ADVANCED_FACE('',(#751,#752),#35,.F.);
#1117=ADVANCED_FACE('',(#753,#754),#36,.F.);
#1118=ADVANCED_FACE('',(#755,#756),#37,.F.);
#1119=CLOSED_SHELL('',(#1077,#1078,#1079,#1080,#1081,#1082,#1083,#1084,
#1085,#1086,#1087,#1088,#1089,#1090,#1091,#1092,#1093,#1094,#1095,#1096,
#1097,#1098,#1099,#1100,#1101,#1102,#1103,#1104,#1105,#1106,#1107,#1108,
#1109,#1110,#1111,#1112,#1113,#1114,#1115,#1116,#1117,#1118));
#1120=MANIFOLD_SOLID_BREP('',#1119);
#1121=SHAPE_DEFINITION_REPRESENTATION(#1667,#1122);
#1122=SHAPE_REPRESENTATION('0121-∆¡ƒª',(#1123),#1662);
#1123=AXIS2_PLACEMENT_3D('',#1433,#1202,#1203);
#1124=AXIS2_PLACEMENT_3D('',#1434,#1204,#1205);
#1125=AXIS2_PLACEMENT_3D('',#1443,#1210,#1211);
#1126=AXIS2_PLACEMENT_3D('',#1452,#1216,#1217);
#1127=AXIS2_PLACEMENT_3D('',#1453,#1218,#1219);
#1128=AXIS2_PLACEMENT_3D('',#1455,#1220,#1221);
#1129=AXIS2_PLACEMENT_3D('',#1465,#1226,#1227);
#1130=AXIS2_PLACEMENT_3D('',#1480,#1236,#1237);
#1131=AXIS2_PLACEMENT_3D('',#1495,#1246,#1247);
#1132=AXIS2_PLACEMENT_3D('',#1496,#1248,#1249);
#1133=AXIS2_PLACEMENT_3D('',#1504,#1253,#1254);
#1134=AXIS2_PLACEMENT_3D('',#1505,#1255,#1256);
#1135=AXIS2_PLACEMENT_3D('',#1506,#1257,#1258);
#1136=AXIS2_PLACEMENT_3D('',#1508,#1259,#1260);
#1137=AXIS2_PLACEMENT_3D('',#1510,#1261,#1262);
#1138=AXIS2_PLACEMENT_3D('',#1514,#1264,#1265);
#1139=AXIS2_PLACEMENT_3D('',#1518,#1267,#1268);
#1140=AXIS2_PLACEMENT_3D('',#1522,#1270,#1271);
#1141=AXIS2_PLACEMENT_3D('',#1534,#1277,#1278);
#1142=AXIS2_PLACEMENT_3D('',#1535,#1279,#1280);
#1143=AXIS2_PLACEMENT_3D('',#1537,#1281,#1282);
#1144=AXIS2_PLACEMENT_3D('',#1539,#1283,#1284);
#1145=AXIS2_PLACEMENT_3D('',#1541,#1285,#1286);
#1146=AXIS2_PLACEMENT_3D('',#1547,#1290,#1291);
#1147=AXIS2_PLACEMENT_3D('',#1548,#1292,#1293);
#1148=AXIS2_PLACEMENT_3D('',#1550,#1295,#1296);
#1149=AXIS2_PLACEMENT_3D('',#1551,#1297,#1298);
#1150=AXIS2_PLACEMENT_3D('',#1552,#1299,#1300);
#1151=AXIS2_PLACEMENT_3D('',#1556,#1302,#1303);
#1152=AXIS2_PLACEMENT_3D('',#1557,#1304,#1305);
#1153=AXIS2_PLACEMENT_3D('',#1558,#1306,#1307);
#1154=AXIS2_PLACEMENT_3D('',#1560,#1309,#1310);
#1155=AXIS2_PLACEMENT_3D('',#1565,#1313,#1314);
#1156=AXIS2_PLACEMENT_3D('',#1567,#1316,#1317);
#1157=AXIS2_PLACEMENT_3D('',#1568,#1318,#1319);
#1158=AXIS2_PLACEMENT_3D('',#1570,#1320,#1321);
#1159=AXIS2_PLACEMENT_3D('',#1571,#1322,#1323);
#1160=AXIS2_PLACEMENT_3D('',#1573,#1324,#1325);
#1161=AXIS2_PLACEMENT_3D('',#1574,#1326,#1327);
#1162=AXIS2_PLACEMENT_3D('',#1576,#1328,#1329);
#1163=AXIS2_PLACEMENT_3D('',#1579,#1332,#1333);
#1164=AXIS2_PLACEMENT_3D('',#1580,#1334,#1335);
#1165=AXIS2_PLACEMENT_3D('',#1584,#1337,#1338);
#1166=AXIS2_PLACEMENT_3D('',#1588,#1340,#1341);
#1167=AXIS2_PLACEMENT_3D('',#1592,#1343,#1344);
#1168=AXIS2_PLACEMENT_3D('',#1596,#1346,#1347);
#1169=AXIS2_PLACEMENT_3D('',#1597,#1348,#1349);
#1170=AXIS2_PLACEMENT_3D('',#1600,#1352,#1353);
#1171=AXIS2_PLACEMENT_3D('',#1603,#1356,#1357);
#1172=AXIS2_PLACEMENT_3D('',#1606,#1360,#1361);
#1173=AXIS2_PLACEMENT_3D('',#1609,#1364,#1365);
#1174=AXIS2_PLACEMENT_3D('',#1610,#1366,#1367);
#1175=AXIS2_PLACEMENT_3D('',#1611,#1368,#1369);
#1176=AXIS2_PLACEMENT_3D('',#1612,#1370,#1371);
#1177=AXIS2_PLACEMENT_3D('',#1613,#1372,#1373);
#1178=AXIS2_PLACEMENT_3D('',#1614,#1374,#1375);
#1179=AXIS2_PLACEMENT_3D('',#1616,#1376,#1377);
#1180=AXIS2_PLACEMENT_3D('',#1623,#1381,#1382);
#1181=AXIS2_PLACEMENT_3D('',#1624,#1383,#1384);
#1182=AXIS2_PLACEMENT_3D('',#1626,#1386,#1387);
#1183=AXIS2_PLACEMENT_3D('',#1627,#1388,#1389);
#1184=AXIS2_PLACEMENT_3D('',#1628,#1390,#1391);
#1185=AXIS2_PLACEMENT_3D('',#1629,#1392,#1393);
#1186=AXIS2_PLACEMENT_3D('',#1630,#1394,#1395);
#1187=AXIS2_PLACEMENT_3D('',#1634,#1397,#1398);
#1188=AXIS2_PLACEMENT_3D('',#1635,#1399,#1400);
#1189=AXIS2_PLACEMENT_3D('',#1640,#1403,#1404);
#1190=AXIS2_PLACEMENT_3D('',#1641,#1405,#1406);
#1191=AXIS2_PLACEMENT_3D('',#1643,#1407,#1408);
#1192=AXIS2_PLACEMENT_3D('',#1647,#1411,#1412);
#1193=AXIS2_PLACEMENT_3D('',#1648,#1413,#1414);
#1194=AXIS2_PLACEMENT_3D('',#1650,#1415,#1416);
#1195=AXIS2_PLACEMENT_3D('',#1654,#1419,#1420);
#1196=AXIS2_PLACEMENT_3D('',#1655,#1421,#1422);
#1197=AXIS2_PLACEMENT_3D('',#1656,#1423,#1424);
#1198=AXIS2_PLACEMENT_3D('',#1657,#1425,#1426);
#1199=AXIS2_PLACEMENT_3D('',#1658,#1427,#1428);
#1200=AXIS2_PLACEMENT_3D('',#1659,#1429,#1430);
#1201=AXIS2_PLACEMENT_3D('',#1660,#1431,#1432);
#1202=DIRECTION('',(0.,0.,1.));
#1203=DIRECTION('',(1.,0.,0.));
#1204=DIRECTION('',(1.,0.,0.));
#1205=DIRECTION('',(0.,0.,-1.));
#1206=DIRECTION('',(0.,1.,0.));
#1207=DIRECTION('',(0.,0.,1.));
#1208=DIRECTION('',(0.,1.,0.));
#1209=DIRECTION('',(0.,0.,-1.));
#1210=DIRECTION('',(1.,0.,0.));
#1211=DIRECTION('',(0.,0.,-1.));
#1212=DIRECTION('',(0.,0.,-1.));
#1213=DIRECTION('',(0.,1.,-4.71392248906741E-18));
#1214=DIRECTION('',(0.,0.,-1.));
#1215=DIRECTION('',(0.,-1.,0.));
#1216=DIRECTION('',(-1.,0.,0.));
#1217=DIRECTION('',(0.,0.,1.));
#1218=DIRECTION('',(-1.,0.,0.));
#1219=DIRECTION('',(0.,0.,1.));
#1220=DIRECTION('',(-1.,0.,0.));
#1221=DIRECTION('',(0.,0.,1.));
#1222=DIRECTION('',(0.,1.,0.));
#1223=DIRECTION('',(0.,0.,1.));
#1224=DIRECTION('',(0.,-1.,0.));
#1225=DIRECTION('',(0.,0.,1.));
#1226=DIRECTION('',(0.,1.,0.));
#1227=DIRECTION('',(0.,0.,1.));
#1228=DIRECTION('',(1.,0.,0.));
#1229=DIRECTION('',(0.,0.,-1.));
#1230=DIRECTION('',(-1.26161707343768E-15,0.,-1.));
#1231=DIRECTION('',(-1.,0.,0.));
#1232=DIRECTION('',(0.,0.,-1.));
#1233=DIRECTION('',(-1.,0.,0.));
#1234=DIRECTION('',(3.96508223080413E-16,0.,-1.));
#1235=DIRECTION('',(-1.,0.,0.));
#1236=DIRECTION('',(0.,1.,0.));
#1237=DIRECTION('',(0.,0.,1.));
#1238=DIRECTION('',(-1.,0.,0.));
#1239=DIRECTION('',(-1.,0.,0.));
#1240=DIRECTION('',(0.,0.,1.));
#1241=DIRECTION('',(-1.,0.,0.));
#1242=DIRECTION('',(0.,0.,-1.));
#1243=DIRECTION('',(1.,0.,0.));
#1244=DIRECTION('',(0.,0.,1.));
#1245=DIRECTION('',(0.,0.,-1.));
#1246=DIRECTION('',(0.,0.,-1.));
#1247=DIRECTION('',(-1.,0.,0.));
#1248=DIRECTION('',(0.,0.,-1.));
#1249=DIRECTION('',(-1.,0.,0.));
#1250=DIRECTION('',(0.,-1.,0.));
#1251=DIRECTION('',(1.,0.,0.));
#1252=DIRECTION('',(0.,-1.,0.));
#1253=DIRECTION('',(0.,0.,-1.));
#1254=DIRECTION('',(-1.,0.,0.));
#1255=DIRECTION('',(-1.,0.,0.));
#1256=DIRECTION('',(0.,0.,1.));
#1257=DIRECTION('',(1.,0.,0.));
#1258=DIRECTION('',(0.,0.,-1.));
#1259=DIRECTION('',(-1.,0.,-3.96508223080413E-16));
#1260=DIRECTION('',(-3.96508223080413E-16,0.,1.));
#1261=DIRECTION('',(-1.,0.,-3.96508223080413E-16));
#1262=DIRECTION('',(-3.96508223080413E-16,0.,1.));
#1263=DIRECTION('',(0.,-1.,0.));
#1264=DIRECTION('',(-1.,0.,-3.96508223080413E-16));
#1265=DIRECTION('',(-3.96508223080413E-16,0.,1.));
#1266=DIRECTION('',(0.,-3.46944695195361E-16,1.));
#1267=DIRECTION('',(-1.,0.,-3.96508223080413E-16));
#1268=DIRECTION('',(-3.96508223080413E-16,0.,1.));
#1269=DIRECTION('',(0.,1.,0.));
#1270=DIRECTION('',(-1.,0.,-3.96508223080413E-16));
#1271=DIRECTION('',(-3.96508223080413E-16,0.,1.));
#1272=DIRECTION('',(3.96508223080413E-16,0.,-1.));
#1273=DIRECTION('',(0.,-1.,0.));
#1274=DIRECTION('',(3.96508223080413E-16,0.,-1.));
#1275=DIRECTION('',(0.,-1.,0.));
#1276=DIRECTION('',(3.96508223080413E-16,0.,-1.));
#1277=DIRECTION('',(-1.,0.,-3.96508223080413E-16));
#1278=DIRECTION('',(-3.96508223080413E-16,0.,1.));
#1279=DIRECTION('',(-1.,0.,-3.96508223080413E-16));
#1280=DIRECTION('',(-3.96508223080413E-16,0.,1.));
#1281=DIRECTION('',(-1.,0.,-3.96508223080413E-16));
#1282=DIRECTION('',(-3.96508223080413E-16,0.,1.));
#1283=DIRECTION('',(-1.,0.,-3.96508223080413E-16));
#1284=DIRECTION('',(-3.96508223080413E-16,0.,1.));
#1285=DIRECTION('',(0.,1.,0.));
#1286=DIRECTION('',(0.,0.,1.));
#1287=DIRECTION('',(-1.,0.,0.));
#1288=DIRECTION('',(0.,0.,1.));
#1289=DIRECTION('',(1.,0.,0.));
#1290=DIRECTION('',(3.96508223080413E-16,0.,-1.));
#1291=DIRECTION('',(-1.,0.,-3.96508223080413E-16));
#1292=DIRECTION('',(0.,0.,-1.));
#1293=DIRECTION('',(-1.,0.,0.));
#1294=DIRECTION('',(3.96508223080413E-16,0.,-1.));
#1295=DIRECTION('',(0.,0.,-1.));
#1296=DIRECTION('',(-1.,0.,0.));
#1297=DIRECTION('',(0.,0.,1.));
#1298=DIRECTION('',(1.,0.,0.));
#1299=DIRECTION('',(0.,0.,-1.));
#1300=DIRECTION('',(-1.,0.,0.));
#1301=DIRECTION('',(0.,0.,-1.));
#1302=DIRECTION('',(0.,0.,-1.));
#1303=DIRECTION('',(-1.,0.,0.));
#1304=DIRECTION('',(0.,0.,1.));
#1305=DIRECTION('',(1.,0.,0.));
#1306=DIRECTION('',(0.,0.,1.));
#1307=DIRECTION('',(1.,0.,0.));
#1308=DIRECTION('',(0.,-1.,0.));
#1309=DIRECTION('',(0.,0.,1.));
#1310=DIRECTION('',(1.,0.,0.));
#1311=DIRECTION('',(0.,-1.,0.));
#1312=DIRECTION('',(1.,0.,0.));
#1313=DIRECTION('',(0.,0.,-1.));
#1314=DIRECTION('',(-1.,0.,0.));
#1315=DIRECTION('',(0.,-1.,0.));
#1316=DIRECTION('',(-1.,0.,0.));
#1317=DIRECTION('',(0.,0.,1.));
#1318=DIRECTION('',(1.,0.,0.));
#1319=DIRECTION('',(0.,0.,-1.));
#1320=DIRECTION('',(-1.,0.,0.));
#1321=DIRECTION('',(0.,0.,1.));
#1322=DIRECTION('',(1.,0.,0.));
#1323=DIRECTION('',(0.,0.,-1.));
#1324=DIRECTION('',(-1.,0.,0.));
#1325=DIRECTION('',(0.,0.,1.));
#1326=DIRECTION('',(1.,0.,0.));
#1327=DIRECTION('',(0.,0.,-1.));
#1328=DIRECTION('',(0.,0.,-1.));
#1329=DIRECTION('',(-1.,0.,0.));
#1330=DIRECTION('',(0.,-1.,0.));
#1331=DIRECTION('',(0.,1.,0.));
#1332=DIRECTION('',(1.,0.,0.));
#1333=DIRECTION('',(0.,0.,-1.));
#1334=DIRECTION('',(1.,0.,0.));
#1335=DIRECTION('',(0.,0.,-1.));
#1336=DIRECTION('',(0.,0.,-1.));
#1337=DIRECTION('',(1.,0.,0.));
#1338=DIRECTION('',(0.,0.,-1.));
#1339=DIRECTION('',(0.,1.,0.));
#1340=DIRECTION('',(1.,0.,0.));
#1341=DIRECTION('',(0.,0.,-1.));
#1342=DIRECTION('',(0.,-3.46944695195361E-16,1.));
#1343=DIRECTION('',(1.,0.,0.));
#1344=DIRECTION('',(0.,0.,-1.));
#1345=DIRECTION('',(0.,-1.,0.));
#1346=DIRECTION('',(1.,0.,0.));
#1347=DIRECTION('',(0.,0.,-1.));
#1348=DIRECTION('',(-1.92592994438723E-31,1.,3.46944695195361E-16));
#1349=DIRECTION('',(0.,-3.46944695195361E-16,1.));
#1350=DIRECTION('',(1.,0.,5.55111512312578E-16));
#1351=DIRECTION('',(1.,0.,5.55111512312578E-16));
#1352=DIRECTION('',(-5.55111512312578E-16,0.,1.));
#1353=DIRECTION('',(1.,0.,5.55111512312578E-16));
#1354=DIRECTION('',(1.,0.,5.55111512312578E-16));
#1355=DIRECTION('',(1.,0.,5.55111512312578E-16));
#1356=DIRECTION('',(0.,-1.,0.));
#1357=DIRECTION('',(0.,0.,-1.));
#1358=DIRECTION('',(1.,0.,5.55111512312578E-16));
#1359=DIRECTION('',(1.,0.,5.55111512312578E-16));
#1360=DIRECTION('',(5.55111512312578E-16,0.,-1.));
#1361=DIRECTION('',(-1.,0.,-5.55111512312578E-16));
#1362=DIRECTION('',(1.,0.,5.55111512312578E-16));
#1363=DIRECTION('',(1.,0.,5.55111512312578E-16));
#1364=DIRECTION('',(-1.,0.,-5.55111512312578E-16));
#1365=DIRECTION('',(-5.55111512312578E-16,0.,1.));
#1366=DIRECTION('',(-1.,0.,-5.55111512312578E-16));
#1367=DIRECTION('',(-5.55111512312578E-16,0.,1.));
#1368=DIRECTION('',(-1.,0.,-5.55111512312578E-16));
#1369=DIRECTION('',(-5.55111512312578E-16,0.,1.));
#1370=DIRECTION('',(-1.,0.,-5.55111512312578E-16));
#1371=DIRECTION('',(-5.55111512312578E-16,0.,1.));
#1372=DIRECTION('',(-1.,0.,1.26161707343768E-15));
#1373=DIRECTION('',(1.26161707343768E-15,0.,1.));
#1374=DIRECTION('',(1.,0.,0.));
#1375=DIRECTION('',(0.,0.,-1.));
#1376=DIRECTION('',(1.,0.,0.));
#1377=DIRECTION('',(0.,0.,1.));
#1378=DIRECTION('',(-1.26161707343768E-15,0.,-1.));
#1379=DIRECTION('',(0.,-1.,0.));
#1380=DIRECTION('',(-1.26161707343768E-15,0.,-1.));
#1381=DIRECTION('',(-1.11022302462516E-14,0.,-1.));
#1382=DIRECTION('',(-1.,0.,1.11022302462516E-14));
#1383=DIRECTION('',(-1.11022302462516E-14,0.,-1.));
#1384=DIRECTION('',(-1.,0.,1.11022302462516E-14));
#1385=DIRECTION('',(-1.,0.,1.11022302462516E-14));
#1386=DIRECTION('',(-1.11022302462516E-14,0.,-1.));
#1387=DIRECTION('',(-1.,0.,1.11022302462516E-14));
#1388=DIRECTION('',(0.,1.,0.));
#1389=DIRECTION('',(0.,0.,1.));
#1390=DIRECTION('',(1.26161707343768E-15,0.,1.));
#1391=DIRECTION('',(1.,0.,-1.26161707343768E-15));
#1392=DIRECTION('',(0.,0.,1.));
#1393=DIRECTION('',(1.,0.,0.));
#1394=DIRECTION('',(0.,4.71392248906741E-18,1.));
#1395=DIRECTION('',(0.,-1.,4.71392248906741E-18));
#1396=DIRECTION('',(0.,1.,-4.71392248906741E-18));
#1397=DIRECTION('',(0.,4.71392248906741E-18,1.));
#1398=DIRECTION('',(0.,-1.,4.71392248906741E-18));
#1399=DIRECTION('',(0.,4.71392248906741E-18,1.));
#1400=DIRECTION('',(0.,-1.,4.71392248906741E-18));
#1401=DIRECTION('',(0.,-1.,0.));
#1402=DIRECTION('',(-1.,0.,0.));
#1403=DIRECTION('',(1.,0.,0.));
#1404=DIRECTION('',(0.,0.,-1.));
#1405=DIRECTION('',(1.,0.,0.));
#1406=DIRECTION('',(0.,0.,-1.));
#1407=DIRECTION('',(1.,0.,0.));
#1408=DIRECTION('',(0.,0.,-1.));
#1409=DIRECTION('',(0.,0.,-1.));
#1410=DIRECTION('',(0.,0.,1.));
#1411=DIRECTION('',(-1.,0.,0.));
#1412=DIRECTION('',(0.,0.,1.));
#1413=DIRECTION('',(1.,0.,0.));
#1414=DIRECTION('',(0.,0.,-1.));
#1415=DIRECTION('',(1.,0.,0.));
#1416=DIRECTION('',(0.,0.,-1.));
#1417=DIRECTION('',(0.,0.,-1.));
#1418=DIRECTION('',(0.,0.,-1.));
#1419=DIRECTION('',(0.,1.,0.));
#1420=DIRECTION('',(0.,0.,1.));
#1421=DIRECTION('',(0.,0.,1.));
#1422=DIRECTION('',(1.,0.,0.));
#1423=DIRECTION('',(0.,0.,1.));
#1424=DIRECTION('',(1.,0.,0.));
#1425=DIRECTION('',(-1.,0.,0.));
#1426=DIRECTION('',(0.,0.,1.));
#1427=DIRECTION('',(-1.,0.,0.));
#1428=DIRECTION('',(0.,0.,1.));
#1429=DIRECTION('',(-1.,0.,0.));
#1430=DIRECTION('',(0.,0.,1.));
#1431=DIRECTION('',(-1.,0.,0.));
#1432=DIRECTION('',(0.,0.,1.));
#1433=CARTESIAN_POINT('',(0.,0.,0.));
#1434=CARTESIAN_POINT('',(-228.5,0.,0.));
#1435=CARTESIAN_POINT('',(-228.5,-17.,196.5));
#1436=CARTESIAN_POINT('',(-228.5,-17.,196.5));
#1437=CARTESIAN_POINT('',(-228.5,-13.,196.5));
#1438=CARTESIAN_POINT('',(-228.5,-13.,50.));
#1439=CARTESIAN_POINT('',(-228.5,-13.,-71.5));
#1440=CARTESIAN_POINT('',(-228.5,0.,-71.5));
#1441=CARTESIAN_POINT('',(-228.5,-17.,-71.5));
#1442=CARTESIAN_POINT('',(-228.5,-17.,-50.));
#1443=CARTESIAN_POINT('',(-204.5,0.,-171.5));
#1444=CARTESIAN_POINT('',(-204.5,-13.,0.));
#1445=CARTESIAN_POINT('',(-204.5,-13.,171.5));
#1446=CARTESIAN_POINT('',(-204.5,-13.,-171.5));
#1447=CARTESIAN_POINT('',(-204.5,1.61687541375012E-15,171.5));
#1448=CARTESIAN_POINT('',(-204.5,-17.,171.5));
#1449=CARTESIAN_POINT('',(-204.5,-17.,0.));
#1450=CARTESIAN_POINT('',(-204.5,-17.,-171.5));
#1451=CARTESIAN_POINT('',(-204.5,2.,-171.5));
#1452=CARTESIAN_POINT('',(-199.5,0.,0.));
#1453=CARTESIAN_POINT('',(-199.5,22.,-184.));
#1454=CARTESIAN_POINT('',(-199.5,22.,-181.25));
#1455=CARTESIAN_POINT('',(-199.5,62.,-184.));
#1456=CARTESIAN_POINT('',(-199.5,62.,-181.25));
#1457=CARTESIAN_POINT('',(-199.5,72.,-171.5));
#1458=CARTESIAN_POINT('',(-199.5,-12.,-171.5));
#1459=CARTESIAN_POINT('',(-199.5,82.,-171.5));
#1460=CARTESIAN_POINT('',(-199.5,-12.,0.));
#1461=CARTESIAN_POINT('',(-199.5,-12.,-196.5));
#1462=CARTESIAN_POINT('',(-199.5,0.,-196.5));
#1463=CARTESIAN_POINT('',(-199.5,82.,-196.5));
#1464=CARTESIAN_POINT('',(-199.5,82.,-182.5));
#1465=CARTESIAN_POINT('',(0.,-13.,0.));
#1466=CARTESIAN_POINT('',(-116.5,-13.,196.5));
#1467=CARTESIAN_POINT('',(-204.5,-13.,196.5));
#1468=CARTESIAN_POINT('',(-204.5,-13.,171.5));
#1469=CARTESIAN_POINT('',(-204.5,-13.,-193.5));
#1470=CARTESIAN_POINT('',(-204.5,-13.,-196.5));
#1471=CARTESIAN_POINT('',(116.5,-13.,-196.5));
#1472=CARTESIAN_POINT('',(-228.5,-13.,-196.5));
#1473=CARTESIAN_POINT('',(-228.5,-13.,-121.5));
#1474=CARTESIAN_POINT('',(-228.5,-13.,-121.5));
#1475=CARTESIAN_POINT('',(0.,-13.,-121.5));
#1476=CARTESIAN_POINT('',(-238.5,-13.,-121.5));
#1477=CARTESIAN_POINT('',(-238.5,-13.,-8.46545056276682E-14));
#1478=CARTESIAN_POINT('',(-238.5,-13.,-71.5));
#1479=CARTESIAN_POINT('',(0.,-13.,-71.5));
#1480=CARTESIAN_POINT('',(0.,-17.,0.));
#1481=CARTESIAN_POINT('',(-116.5,-17.,196.5));
#1482=CARTESIAN_POINT('',(-204.5,-17.,196.5));
#1483=CARTESIAN_POINT('',(0.,-17.,-71.5));
#1484=CARTESIAN_POINT('',(-239.5,-17.,-71.5));
#1485=CARTESIAN_POINT('',(-239.5,-17.,0.));
#1486=CARTESIAN_POINT('',(-239.5,-17.,-121.5));
#1487=CARTESIAN_POINT('',(0.,-17.,-121.5));
#1488=CARTESIAN_POINT('',(-228.5,-17.,-121.5));
#1489=CARTESIAN_POINT('',(-228.5,-17.,-121.5));
#1490=CARTESIAN_POINT('',(-228.5,-17.,-196.5));
#1491=CARTESIAN_POINT('',(116.5,-17.,-196.5));
#1492=CARTESIAN_POINT('',(-204.5,-17.,-196.5));
#1493=CARTESIAN_POINT('',(-204.5,-17.,0.));
#1494=CARTESIAN_POINT('',(-204.5,-17.,196.5));
#1495=CARTESIAN_POINT('',(0.,0.,196.5));
#1496=CARTESIAN_POINT('',(-204.5,-12.,196.5));
#1497=CARTESIAN_POINT('',(-199.5,-12.,196.5));
#1498=CARTESIAN_POINT('',(-199.5,0.,196.5));
#1499=CARTESIAN_POINT('',(-199.5,82.,196.5));
#1500=CARTESIAN_POINT('',(0.,82.,196.5));
#1501=CARTESIAN_POINT('',(-203.5,82.,196.5));
#1502=CARTESIAN_POINT('',(-203.5,82.,196.5));
#1503=CARTESIAN_POINT('',(-203.5,-12.,196.5));
#1504=CARTESIAN_POINT('',(-204.5,-12.,196.5));
#1505=CARTESIAN_POINT('',(-206.502297352489,78.,-101.5));
#1506=CARTESIAN_POINT('',(-243.5,78.,-101.5));
#1507=CARTESIAN_POINT('',(-243.5,78.,-103.9585));
#1508=CARTESIAN_POINT('',(-239.5,78.,-101.5));
#1509=CARTESIAN_POINT('',(-239.5,78.,-99.0415));
#1510=CARTESIAN_POINT('',(-239.5,76.,-8.50510138507486E-14));
#1511=CARTESIAN_POINT('',(-239.5,48.,-81.5));
#1512=CARTESIAN_POINT('',(-239.5,47.,-81.5));
#1513=CARTESIAN_POINT('',(-239.5,-11.,-81.5));
#1514=CARTESIAN_POINT('',(-239.5,47.,-82.5));
#1515=CARTESIAN_POINT('',(-239.5,48.,-82.5));
#1516=CARTESIAN_POINT('',(-239.5,48.,-101.5));
#1517=CARTESIAN_POINT('',(-239.5,48.,-100.5));
#1518=CARTESIAN_POINT('',(-239.5,47.,-100.5));
#1519=CARTESIAN_POINT('',(-239.5,47.,-101.5));
#1520=CARTESIAN_POINT('',(-239.5,28.,-101.5));
#1521=CARTESIAN_POINT('',(-239.5,-11.,-101.5));
#1522=CARTESIAN_POINT('',(-239.5,-11.,-100.5));
#1523=CARTESIAN_POINT('',(-239.5,-12.,-100.5));
#1524=CARTESIAN_POINT('',(-239.5,-12.,-8.50510138507486E-14));
#1525=CARTESIAN_POINT('',(-239.5,-12.,-121.5));
#1526=CARTESIAN_POINT('',(-239.5,76.,-121.5));
#1527=CARTESIAN_POINT('',(-239.5,106.,-121.5));
#1528=CARTESIAN_POINT('',(-239.5,106.,-8.50510138507486E-14));
#1529=CARTESIAN_POINT('',(-239.5,106.,-71.5));
#1530=CARTESIAN_POINT('',(-239.5,76.,-71.5));
#1531=CARTESIAN_POINT('',(-239.5,-12.,-71.5));
#1532=CARTESIAN_POINT('',(-239.5,-12.,-8.50510138507486E-14));
#1533=CARTESIAN_POINT('',(-239.5,-12.,-82.5));
#1534=CARTESIAN_POINT('',(-239.5,-11.,-82.5));
#1535=CARTESIAN_POINT('',(-239.5,78.,-81.5));
#1536=CARTESIAN_POINT('',(-239.5,78.,-79.0415));
#1537=CARTESIAN_POINT('',(-239.5,98.,-81.5));
#1538=CARTESIAN_POINT('',(-239.5,98.,-79.0415));
#1539=CARTESIAN_POINT('',(-239.5,98.,-101.5));
#1540=CARTESIAN_POINT('',(-239.5,98.,-99.0415));
#1541=CARTESIAN_POINT('',(0.,106.,0.));
#1542=CARTESIAN_POINT('',(0.,106.,-121.5));
#1543=CARTESIAN_POINT('',(-243.5,106.,-121.5));
#1544=CARTESIAN_POINT('',(-243.5,106.,-121.5));
#1545=CARTESIAN_POINT('',(-243.5,106.,-71.5));
#1546=CARTESIAN_POINT('',(-216.5,106.,-71.5));
#1547=CARTESIAN_POINT('',(-238.5,-12.,-8.46545056276682E-14));
#1548=CARTESIAN_POINT('',(-238.5,-12.,-121.5));
#1549=CARTESIAN_POINT('',(-239.5,-12.,-8.50510138507486E-14));
#1550=CARTESIAN_POINT('',(-238.5,-12.,-71.5));
#1551=CARTESIAN_POINT('',(-239.5,-13.,0.));
#1552=CARTESIAN_POINT('',(-239.5,-13.,-71.5));
#1553=CARTESIAN_POINT('',(-243.5,-13.,-71.5));
#1554=CARTESIAN_POINT('',(-243.5,-13.,0.));
#1555=CARTESIAN_POINT('',(-243.5,-13.,-121.5));
#1556=CARTESIAN_POINT('',(-239.5,-13.,-121.5));
#1557=CARTESIAN_POINT('',(0.,0.,-196.5));
#1558=CARTESIAN_POINT('',(-204.5,-12.,-196.5));
#1559=CARTESIAN_POINT('',(-228.5,2.,-196.5));
#1560=CARTESIAN_POINT('',(-204.5,-12.,-196.5));
#1561=CARTESIAN_POINT('',(-203.5,-12.,-196.5));
#1562=CARTESIAN_POINT('',(-203.5,72.,-196.5));
#1563=CARTESIAN_POINT('',(-203.5,82.,-196.5));
#1564=CARTESIAN_POINT('',(-199.5,82.,-196.5));
#1565=CARTESIAN_POINT('',(-216.5,0.,-71.5));
#1566=CARTESIAN_POINT('',(-243.5,2.,-71.5));
#1567=CARTESIAN_POINT('',(-206.502297352489,78.,-81.5));
#1568=CARTESIAN_POINT('',(-243.5,78.,-81.5));
#1569=CARTESIAN_POINT('',(-243.5,78.,-83.9585));
#1570=CARTESIAN_POINT('',(-206.502297352489,98.,-81.5));
#1571=CARTESIAN_POINT('',(-243.5,98.,-81.5));
#1572=CARTESIAN_POINT('',(-243.5,98.,-83.9585));
#1573=CARTESIAN_POINT('',(-206.502297352489,98.,-101.5));
#1574=CARTESIAN_POINT('',(-243.5,98.,-101.5));
#1575=CARTESIAN_POINT('',(-243.5,98.,-103.9585));
#1576=CARTESIAN_POINT('',(-214.5,0.,-121.5));
#1577=CARTESIAN_POINT('',(-228.5,2.,-121.5));
#1578=CARTESIAN_POINT('',(-243.5,2.,-121.5));
#1579=CARTESIAN_POINT('',(-228.5,2.,-121.5));
#1580=CARTESIAN_POINT('',(-243.5,0.,0.));
#1581=CARTESIAN_POINT('',(-243.5,-12.,0.));
#1582=CARTESIAN_POINT('',(-243.5,-12.,-82.5));
#1583=CARTESIAN_POINT('',(-243.5,-12.,-100.5));
#1584=CARTESIAN_POINT('',(-243.5,-11.,-100.5));
#1585=CARTESIAN_POINT('',(-243.5,-11.,-101.5));
#1586=CARTESIAN_POINT('',(-243.5,0.,-101.5));
#1587=CARTESIAN_POINT('',(-243.5,47.,-101.5));
#1588=CARTESIAN_POINT('',(-243.5,47.,-100.5));
#1589=CARTESIAN_POINT('',(-243.5,48.,-100.5));
#1590=CARTESIAN_POINT('',(-243.5,48.,1.66533453693773E-14));
#1591=CARTESIAN_POINT('',(-243.5,48.,-82.5));
#1592=CARTESIAN_POINT('',(-243.5,47.,-82.5));
#1593=CARTESIAN_POINT('',(-243.5,47.,-81.5));
#1594=CARTESIAN_POINT('',(-243.5,0.,-81.5));
#1595=CARTESIAN_POINT('',(-243.5,-11.,-81.5));
#1596=CARTESIAN_POINT('',(-243.5,-11.,-82.5));
#1597=CARTESIAN_POINT('',(-246.007841530423,48.,-101.5));
#1598=CARTESIAN_POINT('',(-219.5,48.,-100.5));
#1599=CARTESIAN_POINT('',(-223.5,48.,-82.5));
#1600=CARTESIAN_POINT('',(-246.007841530423,48.,-81.5));
#1601=CARTESIAN_POINT('',(-219.5,47.,-81.5));
#1602=CARTESIAN_POINT('',(-223.5,-11.,-81.5));
#1603=CARTESIAN_POINT('',(-246.007841530423,-12.,-81.5));
#1604=CARTESIAN_POINT('',(-223.5,-12.,-100.5));
#1605=CARTESIAN_POINT('',(-219.5,-12.,-82.5));
#1606=CARTESIAN_POINT('',(-246.007841530423,28.,-101.5));
#1607=CARTESIAN_POINT('',(-223.5,47.,-101.5));
#1608=CARTESIAN_POINT('',(-219.5,-11.,-101.5));
#1609=CARTESIAN_POINT('',(-246.007841530423,-11.,-82.5));
#1610=CARTESIAN_POINT('',(-246.007841530423,47.,-82.5));
#1611=CARTESIAN_POINT('',(-246.007841530423,-11.,-100.5));
#1612=CARTESIAN_POINT('',(-246.007841530423,47.,-100.5));
#1613=CARTESIAN_POINT('',(-203.5,72.,-193.5));
#1614=CARTESIAN_POINT('',(-203.5,22.,-184.));
#1615=CARTESIAN_POINT('',(-203.5,22.,-186.75));
#1616=CARTESIAN_POINT('',(-203.5,62.,-184.));
#1617=CARTESIAN_POINT('',(-203.5,62.,-181.25));
#1618=CARTESIAN_POINT('',(-203.5,-12.,-171.5));
#1619=CARTESIAN_POINT('',(-203.5,-12.,-171.5));
#1620=CARTESIAN_POINT('',(-203.5,72.,-171.5));
#1621=CARTESIAN_POINT('',(-203.5,82.,-171.5));
#1622=CARTESIAN_POINT('',(-203.5,82.,-193.5));
#1623=CARTESIAN_POINT('',(-199.5,72.,-171.5));
#1624=CARTESIAN_POINT('',(-204.5,-12.,-171.5));
#1625=CARTESIAN_POINT('',(-204.5,82.,-171.5));
#1626=CARTESIAN_POINT('',(-204.5,-12.,-171.5));
#1627=CARTESIAN_POINT('',(-199.5,82.,-182.5));
#1628=CARTESIAN_POINT('',(-204.5,-12.,2.58000691518004E-13));
#1629=CARTESIAN_POINT('',(-204.5,-12.,0.));
#1630=CARTESIAN_POINT('',(-199.5,1.61687541375012E-15,171.5));
#1631=CARTESIAN_POINT('',(-199.5,1.61687541375012E-15,171.5));
#1632=CARTESIAN_POINT('',(-199.5,-12.,171.5));
#1633=CARTESIAN_POINT('',(-199.5,82.,171.5));
#1634=CARTESIAN_POINT('',(-204.5,-12.,171.5));
#1635=CARTESIAN_POINT('',(-204.5,-12.,171.5));
#1636=CARTESIAN_POINT('',(-203.5,-12.,171.5));
#1637=CARTESIAN_POINT('',(-203.5,82.,171.5));
#1638=CARTESIAN_POINT('',(-203.5,82.,171.5));
#1639=CARTESIAN_POINT('',(-199.5,82.,171.5));
#1640=CARTESIAN_POINT('',(-199.5,0.,-171.5));
#1641=CARTESIAN_POINT('',(-199.5,62.,184.));
#1642=CARTESIAN_POINT('',(-199.5,62.,181.25));
#1643=CARTESIAN_POINT('',(-199.5,22.,184.));
#1644=CARTESIAN_POINT('',(-199.5,22.,181.25));
#1645=CARTESIAN_POINT('',(-199.5,-12.,171.5));
#1646=CARTESIAN_POINT('',(-199.5,82.,-171.5));
#1647=CARTESIAN_POINT('',(-203.5,82.,0.));
#1648=CARTESIAN_POINT('',(-203.5,62.,184.));
#1649=CARTESIAN_POINT('',(-203.5,62.,181.25));
#1650=CARTESIAN_POINT('',(-203.5,22.,184.));
#1651=CARTESIAN_POINT('',(-203.5,22.,181.25));
#1652=CARTESIAN_POINT('',(-203.5,-12.,196.5));
#1653=CARTESIAN_POINT('',(-203.5,82.,0.));
#1654=CARTESIAN_POINT('',(0.,82.,0.));
#1655=CARTESIAN_POINT('',(-204.5,-12.,0.));
#1656=CARTESIAN_POINT('',(-204.5,-12.,-171.5));
#1657=CARTESIAN_POINT('',(-112.624754054573,62.,-184.));
#1658=CARTESIAN_POINT('',(-112.624754054573,22.,-184.));
#1659=CARTESIAN_POINT('',(-112.624754054573,22.,184.));
#1660=CARTESIAN_POINT('',(-112.624754054573,62.,184.));
#1661=MECHANICAL_DESIGN_GEOMETRIC_PRESENTATION_REPRESENTATION('',(#781,
#782,#783,#784,#785,#786,#787,#788,#789,#790,#791,#792,#793,#794,#795,#796,
#797,#798,#799,#800,#801,#802,#803,#804,#805,#806,#807,#808,#809,#810,#811,
#812,#813,#814,#815,#816,#817,#818,#819,#820,#821,#822),#1662);
#1662=(
GEOMETRIC_REPRESENTATION_CONTEXT(3)
GLOBAL_UNCERTAINTY_ASSIGNED_CONTEXT((#1663))
GLOBAL_UNIT_ASSIGNED_CONTEXT((#1666,#1665,#1664))
REPRESENTATION_CONTEXT('0121-∆¡ƒªzip','TOP_LEVEL_ASSEMBLY_PART')
);
#1663=UNCERTAINTY_MEASURE_WITH_UNIT(LENGTH_MEASURE(0.005),#1666,
'DISTANCE_ACCURACY_VALUE','Maximum Tolerance applied to model');
#1664=(
NAMED_UNIT(*)
SI_UNIT($,.STERADIAN.)
SOLID_ANGLE_UNIT()
);
#1665=(
NAMED_UNIT(*)
PLANE_ANGLE_UNIT()
SI_UNIT($,.RADIAN.)
);
#1666=(
LENGTH_UNIT()
NAMED_UNIT(*)
SI_UNIT(.MILLI.,.METRE.)
);
#1667=PRODUCT_DEFINITION_SHAPE('','',#1668);
#1668=PRODUCT_DEFINITION('','',#1670,#1669);
#1669=PRODUCT_DEFINITION_CONTEXT('',#1676,'design');
#1670=PRODUCT_DEFINITION_FORMATION_WITH_SPECIFIED_SOURCE('','',#1672,
 .NOT_KNOWN.);
#1671=PRODUCT_RELATED_PRODUCT_CATEGORY('','',(#1672));
#1672=PRODUCT('0121-∆¡ƒªzip','0121-∆¡ƒªzip','0121-∆¡ƒªzip',(#1674));
#1673=PRODUCT_CATEGORY('','');
#1674=PRODUCT_CONTEXT('',#1676,'mechanical');
#1675=APPLICATION_PROTOCOL_DEFINITION('international standard',
'automotive_design',2010,#1676);
#1676=APPLICATION_CONTEXT(
'core data for automotive mechanical design processes');
ENDSEC;
END-ISO-10303-21;
