ISO-10303-21;
HEADER;
/* Generated by software containing ST-Developer
 * from STEP Tools, Inc. (www.steptools.com) 
 */
/* OPTION: strings as raw bytes, not using required /X/ escapes */

FILE_DESCRIPTION(
/* description */ ('Unknown'),
/* implementation_level */ '2;1');

FILE_NAME(
/* name */ '1321-é’¢å¸¦',
/* time_stamp */ '2026-05-26T19:39:22+08:00',
/* author */ ('Unknown'),
/* organization */ ('Unknown'),
/* preprocessor_version */ 'ST-DEVELOPER v16.7',
/* originating_system */ 'Solid Edge',
/* authorisation */ 'Unknown');

FILE_SCHEMA (('AUTOMOTIVE_DESIGN {1 0 10303 214 3 1 1}'));
ENDSEC;

DATA;
#10=PROPERTY_DEFINITION_REPRESENTATION(#14,#12);
#11=PROPERTY_DEFINITION_REPRESENTATION(#15,#13);
#12=REPRESENTATION('',(#16),#797);
#13=REPRESENTATION('',(#17),#797);
#14=PROPERTY_DEFINITION('pmi validation property','',#802);
#15=PROPERTY_DEFINITION('pmi validation property','',#802);
#16=VALUE_REPRESENTATION_ITEM('number of annotations',COUNT_MEASURE(0.));
#17=VALUE_REPRESENTATION_ITEM('number of views',COUNT_MEASURE(0.));
#18=SHAPE_REPRESENTATION_RELATIONSHIP('','',#483,#19);
#19=ADVANCED_BREP_SHAPE_REPRESENTATION('',(#481),#797);
#20=CYLINDRICAL_SURFACE('',#513,2.75);
#21=CYLINDRICAL_SURFACE('',#520,2.75);
#22=CYLINDRICAL_SURFACE('',#521,0.999999999999999);
#23=CYLINDRICAL_SURFACE('',#522,0.999999999999998);
#24=CYLINDRICAL_SURFACE('',#523,3.);
#25=CYLINDRICAL_SURFACE('',#524,3.);
#26=CYLINDRICAL_SURFACE('',#525,2.99999999999999);
#27=CYLINDRICAL_SURFACE('',#526,2.99999999999999);
#28=CYLINDRICAL_SURFACE('',#527,0.999999999999997);
#29=CYLINDRICAL_SURFACE('',#528,0.999999999999997);
#30=CIRCLE('',#489,2.99999999999999);
#31=CIRCLE('',#490,0.999999999999999);
#32=CIRCLE('',#491,0.999999999999998);
#33=CIRCLE('',#492,2.99999999999999);
#34=CIRCLE('',#493,0.999999999999997);
#35=CIRCLE('',#494,3.);
#36=CIRCLE('',#495,3.);
#37=CIRCLE('',#496,0.999999999999997);
#38=CIRCLE('',#498,2.99999999999999);
#39=CIRCLE('',#499,0.999999999999997);
#40=CIRCLE('',#500,3.);
#41=CIRCLE('',#501,3.);
#42=CIRCLE('',#502,0.999999999999997);
#43=CIRCLE('',#503,2.99999999999999);
#44=CIRCLE('',#504,0.999999999999998);
#45=CIRCLE('',#505,0.999999999999999);
#46=CIRCLE('',#509,2.75);
#47=CIRCLE('',#511,2.75);
#48=CIRCLE('',#516,2.75);
#49=CIRCLE('',#518,2.75);
#50=ORIENTED_EDGE('',*,*,#178,.F.);
#51=ORIENTED_EDGE('',*,*,#179,.T.);
#52=ORIENTED_EDGE('',*,*,#180,.T.);
#53=ORIENTED_EDGE('',*,*,#181,.T.);
#54=ORIENTED_EDGE('',*,*,#182,.F.);
#55=ORIENTED_EDGE('',*,*,#183,.T.);
#56=ORIENTED_EDGE('',*,*,#184,.F.);
#57=ORIENTED_EDGE('',*,*,#185,.T.);
#58=ORIENTED_EDGE('',*,*,#186,.F.);
#59=ORIENTED_EDGE('',*,*,#187,.T.);
#60=ORIENTED_EDGE('',*,*,#188,.T.);
#61=ORIENTED_EDGE('',*,*,#189,.T.);
#62=ORIENTED_EDGE('',*,*,#190,.T.);
#63=ORIENTED_EDGE('',*,*,#191,.T.);
#64=ORIENTED_EDGE('',*,*,#192,.T.);
#65=ORIENTED_EDGE('',*,*,#193,.T.);
#66=ORIENTED_EDGE('',*,*,#184,.T.);
#67=ORIENTED_EDGE('',*,*,#194,.T.);
#68=ORIENTED_EDGE('',*,*,#195,.F.);
#69=ORIENTED_EDGE('',*,*,#196,.T.);
#70=ORIENTED_EDGE('',*,*,#197,.T.);
#71=ORIENTED_EDGE('',*,*,#198,.T.);
#72=ORIENTED_EDGE('',*,*,#199,.T.);
#73=ORIENTED_EDGE('',*,*,#200,.T.);
#74=ORIENTED_EDGE('',*,*,#186,.T.);
#75=ORIENTED_EDGE('',*,*,#201,.T.);
#76=ORIENTED_EDGE('',*,*,#202,.F.);
#77=ORIENTED_EDGE('',*,*,#203,.T.);
#78=ORIENTED_EDGE('',*,*,#180,.F.);
#79=ORIENTED_EDGE('',*,*,#204,.T.);
#80=ORIENTED_EDGE('',*,*,#205,.F.);
#81=ORIENTED_EDGE('',*,*,#206,.F.);
#82=ORIENTED_EDGE('',*,*,#207,.F.);
#83=ORIENTED_EDGE('',*,*,#208,.T.);
#84=ORIENTED_EDGE('',*,*,#209,.T.);
#85=ORIENTED_EDGE('',*,*,#210,.T.);
#86=ORIENTED_EDGE('',*,*,#211,.T.);
#87=ORIENTED_EDGE('',*,*,#212,.T.);
#88=ORIENTED_EDGE('',*,*,#178,.T.);
#89=ORIENTED_EDGE('',*,*,#213,.T.);
#90=ORIENTED_EDGE('',*,*,#214,.F.);
#91=ORIENTED_EDGE('',*,*,#215,.T.);
#92=ORIENTED_EDGE('',*,*,#188,.F.);
#93=ORIENTED_EDGE('',*,*,#216,.T.);
#94=ORIENTED_EDGE('',*,*,#217,.F.);
#95=ORIENTED_EDGE('',*,*,#218,.F.);
#96=ORIENTED_EDGE('',*,*,#219,.T.);
#97=ORIENTED_EDGE('',*,*,#220,.T.);
#98=ORIENTED_EDGE('',*,*,#221,.T.);
#99=ORIENTED_EDGE('',*,*,#222,.T.);
#100=ORIENTED_EDGE('',*,*,#182,.T.);
#101=ORIENTED_EDGE('',*,*,#223,.T.);
#102=ORIENTED_EDGE('',*,*,#202,.T.);
#103=ORIENTED_EDGE('',*,*,#224,.T.);
#104=ORIENTED_EDGE('',*,*,#214,.T.);
#105=ORIENTED_EDGE('',*,*,#225,.T.);
#106=ORIENTED_EDGE('',*,*,#221,.F.);
#107=ORIENTED_EDGE('',*,*,#226,.T.);
#108=ORIENTED_EDGE('',*,*,#195,.T.);
#109=ORIENTED_EDGE('',*,*,#227,.T.);
#110=ORIENTED_EDGE('',*,*,#228,.F.);
#111=ORIENTED_EDGE('',*,*,#197,.F.);
#112=ORIENTED_EDGE('',*,*,#229,.T.);
#113=ORIENTED_EDGE('',*,*,#219,.F.);
#114=ORIENTED_EDGE('',*,*,#230,.F.);
#115=ORIENTED_EDGE('',*,*,#231,.T.);
#116=ORIENTED_EDGE('',*,*,#217,.T.);
#117=ORIENTED_EDGE('',*,*,#232,.T.);
#118=ORIENTED_EDGE('',*,*,#199,.F.);
#119=ORIENTED_EDGE('',*,*,#233,.T.);
#120=ORIENTED_EDGE('',*,*,#233,.F.);
#121=ORIENTED_EDGE('',*,*,#198,.F.);
#122=ORIENTED_EDGE('',*,*,#230,.T.);
#123=ORIENTED_EDGE('',*,*,#218,.T.);
#124=ORIENTED_EDGE('',*,*,#231,.F.);
#125=ORIENTED_EDGE('',*,*,#228,.T.);
#126=ORIENTED_EDGE('',*,*,#192,.F.);
#127=ORIENTED_EDGE('',*,*,#234,.T.);
#128=ORIENTED_EDGE('',*,*,#207,.T.);
#129=ORIENTED_EDGE('',*,*,#235,.T.);
#130=ORIENTED_EDGE('',*,*,#236,.F.);
#131=ORIENTED_EDGE('',*,*,#209,.F.);
#132=ORIENTED_EDGE('',*,*,#237,.T.);
#133=ORIENTED_EDGE('',*,*,#190,.F.);
#134=ORIENTED_EDGE('',*,*,#238,.F.);
#135=ORIENTED_EDGE('',*,*,#239,.T.);
#136=ORIENTED_EDGE('',*,*,#205,.T.);
#137=ORIENTED_EDGE('',*,*,#240,.T.);
#138=ORIENTED_EDGE('',*,*,#211,.F.);
#139=ORIENTED_EDGE('',*,*,#241,.T.);
#140=ORIENTED_EDGE('',*,*,#241,.F.);
#141=ORIENTED_EDGE('',*,*,#210,.F.);
#142=ORIENTED_EDGE('',*,*,#238,.T.);
#143=ORIENTED_EDGE('',*,*,#206,.T.);
#144=ORIENTED_EDGE('',*,*,#239,.F.);
#145=ORIENTED_EDGE('',*,*,#236,.T.);
#146=ORIENTED_EDGE('',*,*,#223,.F.);
#147=ORIENTED_EDGE('',*,*,#185,.F.);
#148=ORIENTED_EDGE('',*,*,#193,.F.);
#149=ORIENTED_EDGE('',*,*,#235,.F.);
#150=ORIENTED_EDGE('',*,*,#194,.F.);
#151=ORIENTED_EDGE('',*,*,#183,.F.);
#152=ORIENTED_EDGE('',*,*,#222,.F.);
#153=ORIENTED_EDGE('',*,*,#227,.F.);
#154=ORIENTED_EDGE('',*,*,#213,.F.);
#155=ORIENTED_EDGE('',*,*,#181,.F.);
#156=ORIENTED_EDGE('',*,*,#203,.F.);
#157=ORIENTED_EDGE('',*,*,#225,.F.);
#158=ORIENTED_EDGE('',*,*,#201,.F.);
#159=ORIENTED_EDGE('',*,*,#189,.F.);
#160=ORIENTED_EDGE('',*,*,#215,.F.);
#161=ORIENTED_EDGE('',*,*,#224,.F.);
#162=ORIENTED_EDGE('',*,*,#196,.F.);
#163=ORIENTED_EDGE('',*,*,#226,.F.);
#164=ORIENTED_EDGE('',*,*,#220,.F.);
#165=ORIENTED_EDGE('',*,*,#229,.F.);
#166=ORIENTED_EDGE('',*,*,#208,.F.);
#167=ORIENTED_EDGE('',*,*,#234,.F.);
#168=ORIENTED_EDGE('',*,*,#191,.F.);
#169=ORIENTED_EDGE('',*,*,#237,.F.);
#170=ORIENTED_EDGE('',*,*,#212,.F.);
#171=ORIENTED_EDGE('',*,*,#240,.F.);
#172=ORIENTED_EDGE('',*,*,#204,.F.);
#173=ORIENTED_EDGE('',*,*,#179,.F.);
#174=ORIENTED_EDGE('',*,*,#200,.F.);
#175=ORIENTED_EDGE('',*,*,#232,.F.);
#176=ORIENTED_EDGE('',*,*,#216,.F.);
#177=ORIENTED_EDGE('',*,*,#187,.F.);
#178=EDGE_CURVE('',#242,#243,#286,.T.);
#179=EDGE_CURVE('',#242,#244,#287,.T.);
#180=EDGE_CURVE('',#244,#245,#288,.T.);
#181=EDGE_CURVE('',#245,#243,#289,.F.);
#182=EDGE_CURVE('',#246,#247,#290,.T.);
#183=EDGE_CURVE('',#246,#248,#291,.F.);
#184=EDGE_CURVE('',#249,#248,#292,.T.);
#185=EDGE_CURVE('',#249,#247,#293,.F.);
#186=EDGE_CURVE('',#250,#251,#294,.T.);
#187=EDGE_CURVE('',#250,#252,#295,.T.);
#188=EDGE_CURVE('',#252,#253,#296,.T.);
#189=EDGE_CURVE('',#253,#251,#297,.F.);
#190=EDGE_CURVE('',#254,#255,#298,.T.);
#191=EDGE_CURVE('',#255,#256,#30,.T.);
#192=EDGE_CURVE('',#256,#257,#299,.T.);
#193=EDGE_CURVE('',#257,#249,#31,.F.);
#194=EDGE_CURVE('',#248,#258,#32,.F.);
#195=EDGE_CURVE('',#259,#258,#300,.T.);
#196=EDGE_CURVE('',#259,#260,#33,.T.);
#197=EDGE_CURVE('',#260,#261,#301,.T.);
#198=EDGE_CURVE('',#261,#262,#302,.T.);
#199=EDGE_CURVE('',#262,#263,#303,.T.);
#200=EDGE_CURVE('',#263,#250,#34,.F.);
#201=EDGE_CURVE('',#251,#264,#35,.T.);
#202=EDGE_CURVE('',#265,#264,#304,.T.);
#203=EDGE_CURVE('',#265,#245,#36,.T.);
#204=EDGE_CURVE('',#244,#266,#37,.F.);
#205=EDGE_CURVE('',#267,#266,#305,.F.);
#206=EDGE_CURVE('',#254,#267,#306,.F.);
#207=EDGE_CURVE('',#268,#269,#307,.T.);
#208=EDGE_CURVE('',#268,#270,#38,.T.);
#209=EDGE_CURVE('',#270,#271,#308,.T.);
#210=EDGE_CURVE('',#271,#272,#309,.T.);
#211=EDGE_CURVE('',#272,#273,#310,.T.);
#212=EDGE_CURVE('',#273,#242,#39,.F.);
#213=EDGE_CURVE('',#243,#274,#40,.T.);
#214=EDGE_CURVE('',#275,#274,#311,.T.);
#215=EDGE_CURVE('',#275,#253,#41,.T.);
#216=EDGE_CURVE('',#252,#276,#42,.F.);
#217=EDGE_CURVE('',#277,#276,#312,.T.);
#218=EDGE_CURVE('',#278,#277,#313,.T.);
#219=EDGE_CURVE('',#278,#279,#314,.T.);
#220=EDGE_CURVE('',#279,#280,#43,.T.);
#221=EDGE_CURVE('',#280,#281,#315,.T.);
#222=EDGE_CURVE('',#281,#246,#44,.F.);
#223=EDGE_CURVE('',#247,#269,#45,.F.);
#224=EDGE_CURVE('',#264,#275,#316,.T.);
#225=EDGE_CURVE('',#274,#265,#317,.T.);
#226=EDGE_CURVE('',#280,#259,#318,.F.);
#227=EDGE_CURVE('',#258,#281,#319,.T.);
#228=EDGE_CURVE('',#282,#282,#46,.F.);
#229=EDGE_CURVE('',#260,#279,#320,.T.);
#230=EDGE_CURVE('',#261,#278,#321,.T.);
#231=EDGE_CURVE('',#283,#283,#47,.T.);
#232=EDGE_CURVE('',#276,#263,#322,.F.);
#233=EDGE_CURVE('',#262,#277,#323,.T.);
#234=EDGE_CURVE('',#256,#268,#324,.F.);
#235=EDGE_CURVE('',#269,#257,#325,.T.);
#236=EDGE_CURVE('',#284,#284,#48,.F.);
#237=EDGE_CURVE('',#270,#255,#326,.T.);
#238=EDGE_CURVE('',#271,#254,#327,.T.);
#239=EDGE_CURVE('',#285,#285,#49,.T.);
#240=EDGE_CURVE('',#266,#273,#328,.F.);
#241=EDGE_CURVE('',#272,#267,#329,.T.);
#242=VERTEX_POINT('',#666);
#243=VERTEX_POINT('',#667);
#244=VERTEX_POINT('',#669);
#245=VERTEX_POINT('',#671);
#246=VERTEX_POINT('',#675);
#247=VERTEX_POINT('',#676);
#248=VERTEX_POINT('',#678);
#249=VERTEX_POINT('',#680);
#250=VERTEX_POINT('',#684);
#251=VERTEX_POINT('',#685);
#252=VERTEX_POINT('',#687);
#253=VERTEX_POINT('',#689);
#254=VERTEX_POINT('',#693);
#255=VERTEX_POINT('',#694);
#256=VERTEX_POINT('',#696);
#257=VERTEX_POINT('',#698);
#258=VERTEX_POINT('',#701);
#259=VERTEX_POINT('',#703);
#260=VERTEX_POINT('',#705);
#261=VERTEX_POINT('',#707);
#262=VERTEX_POINT('',#709);
#263=VERTEX_POINT('',#711);
#264=VERTEX_POINT('',#714);
#265=VERTEX_POINT('',#716);
#266=VERTEX_POINT('',#719);
#267=VERTEX_POINT('',#721);
#268=VERTEX_POINT('',#725);
#269=VERTEX_POINT('',#726);
#270=VERTEX_POINT('',#728);
#271=VERTEX_POINT('',#730);
#272=VERTEX_POINT('',#732);
#273=VERTEX_POINT('',#734);
#274=VERTEX_POINT('',#737);
#275=VERTEX_POINT('',#739);
#276=VERTEX_POINT('',#742);
#277=VERTEX_POINT('',#744);
#278=VERTEX_POINT('',#746);
#279=VERTEX_POINT('',#748);
#280=VERTEX_POINT('',#750);
#281=VERTEX_POINT('',#752);
#282=VERTEX_POINT('',#763);
#283=VERTEX_POINT('',#768);
#284=VERTEX_POINT('',#778);
#285=VERTEX_POINT('',#783);
#286=LINE('',#665,#330);
#287=LINE('',#668,#331);
#288=LINE('',#670,#332);
#289=LINE('',#672,#333);
#290=LINE('',#674,#334);
#291=LINE('',#677,#335);
#292=LINE('',#679,#336);
#293=LINE('',#681,#337);
#294=LINE('',#683,#338);
#295=LINE('',#686,#339);
#296=LINE('',#688,#340);
#297=LINE('',#690,#341);
#298=LINE('',#692,#342);
#299=LINE('',#697,#343);
#300=LINE('',#702,#344);
#301=LINE('',#706,#345);
#302=LINE('',#708,#346);
#303=LINE('',#710,#347);
#304=LINE('',#715,#348);
#305=LINE('',#720,#349);
#306=LINE('',#722,#350);
#307=LINE('',#724,#351);
#308=LINE('',#729,#352);
#309=LINE('',#731,#353);
#310=LINE('',#733,#354);
#311=LINE('',#738,#355);
#312=LINE('',#743,#356);
#313=LINE('',#745,#357);
#314=LINE('',#747,#358);
#315=LINE('',#751,#359);
#316=LINE('',#756,#360);
#317=LINE('',#757,#361);
#318=LINE('',#759,#362);
#319=LINE('',#760,#363);
#320=LINE('',#764,#364);
#321=LINE('',#765,#365);
#322=LINE('',#769,#366);
#323=LINE('',#770,#367);
#324=LINE('',#774,#368);
#325=LINE('',#775,#369);
#326=LINE('',#779,#370);
#327=LINE('',#780,#371);
#328=LINE('',#784,#372);
#329=LINE('',#785,#373);
#330=VECTOR('',#533,1000.);
#331=VECTOR('',#534,1000.);
#332=VECTOR('',#535,1000.);
#333=VECTOR('',#536,1000.);
#334=VECTOR('',#539,1000.);
#335=VECTOR('',#540,1000.);
#336=VECTOR('',#541,1000.);
#337=VECTOR('',#542,1000.);
#338=VECTOR('',#545,1000.);
#339=VECTOR('',#546,1000.);
#340=VECTOR('',#547,1000.);
#341=VECTOR('',#548,1000.);
#342=VECTOR('',#551,1000.);
#343=VECTOR('',#554,1000.);
#344=VECTOR('',#559,1000.);
#345=VECTOR('',#562,1000.);
#346=VECTOR('',#563,1000.);
#347=VECTOR('',#564,1000.);
#348=VECTOR('',#569,1000.);
#349=VECTOR('',#574,1000.);
#350=VECTOR('',#575,1000.);
#351=VECTOR('',#578,1000.);
#352=VECTOR('',#581,1000.);
#353=VECTOR('',#582,1000.);
#354=VECTOR('',#583,1000.);
#355=VECTOR('',#588,1000.);
#356=VECTOR('',#593,1000.);
#357=VECTOR('',#594,1000.);
#358=VECTOR('',#595,1000.);
#359=VECTOR('',#598,1000.);
#360=VECTOR('',#605,1000.);
#361=VECTOR('',#606,1000.);
#362=VECTOR('',#609,1000.);
#363=VECTOR('',#610,1000.);
#364=VECTOR('',#615,1000.);
#365=VECTOR('',#616,1000.);
#366=VECTOR('',#621,1000.);
#367=VECTOR('',#622,1000.);
#368=VECTOR('',#629,1000.);
#369=VECTOR('',#630,1000.);
#370=VECTOR('',#635,1000.);
#371=VECTOR('',#636,1000.);
#372=VECTOR('',#641,1000.);
#373=VECTOR('',#642,1000.);
#374=EDGE_LOOP('',(#50,#51,#52,#53));
#375=EDGE_LOOP('',(#54,#55,#56,#57));
#376=EDGE_LOOP('',(#58,#59,#60,#61));
#377=EDGE_LOOP('',(#62,#63,#64,#65,#66,#67,#68,#69,#70,#71,#72,#73,#74,
#75,#76,#77,#78,#79,#80,#81));
#378=EDGE_LOOP('',(#82,#83,#84,#85,#86,#87,#88,#89,#90,#91,#92,#93,#94,
#95,#96,#97,#98,#99,#100,#101));
#379=EDGE_LOOP('',(#102,#103,#104,#105));
#380=EDGE_LOOP('',(#106,#107,#108,#109));
#381=EDGE_LOOP('',(#110));
#382=EDGE_LOOP('',(#111,#112,#113,#114));
#383=EDGE_LOOP('',(#115));
#384=EDGE_LOOP('',(#116,#117,#118,#119));
#385=EDGE_LOOP('',(#120,#121,#122,#123));
#386=EDGE_LOOP('',(#124));
#387=EDGE_LOOP('',(#125));
#388=EDGE_LOOP('',(#126,#127,#128,#129));
#389=EDGE_LOOP('',(#130));
#390=EDGE_LOOP('',(#131,#132,#133,#134));
#391=EDGE_LOOP('',(#135));
#392=EDGE_LOOP('',(#136,#137,#138,#139));
#393=EDGE_LOOP('',(#140,#141,#142,#143));
#394=EDGE_LOOP('',(#144));
#395=EDGE_LOOP('',(#145));
#396=EDGE_LOOP('',(#146,#147,#148,#149));
#397=EDGE_LOOP('',(#150,#151,#152,#153));
#398=EDGE_LOOP('',(#154,#155,#156,#157));
#399=EDGE_LOOP('',(#158,#159,#160,#161));
#400=EDGE_LOOP('',(#162,#163,#164,#165));
#401=EDGE_LOOP('',(#166,#167,#168,#169));
#402=EDGE_LOOP('',(#170,#171,#172,#173));
#403=EDGE_LOOP('',(#174,#175,#176,#177));
#404=FACE_BOUND('',#374,.T.);
#405=FACE_BOUND('',#375,.T.);
#406=FACE_BOUND('',#376,.T.);
#407=FACE_BOUND('',#377,.T.);
#408=FACE_BOUND('',#378,.T.);
#409=FACE_BOUND('',#379,.T.);
#410=FACE_BOUND('',#380,.T.);
#411=FACE_BOUND('',#381,.T.);
#412=FACE_BOUND('',#382,.T.);
#413=FACE_BOUND('',#383,.T.);
#414=FACE_BOUND('',#384,.T.);
#415=FACE_BOUND('',#385,.T.);
#416=FACE_BOUND('',#386,.T.);
#417=FACE_BOUND('',#387,.T.);
#418=FACE_BOUND('',#388,.T.);
#419=FACE_BOUND('',#389,.T.);
#420=FACE_BOUND('',#390,.T.);
#421=FACE_BOUND('',#391,.T.);
#422=FACE_BOUND('',#392,.T.);
#423=FACE_BOUND('',#393,.T.);
#424=FACE_BOUND('',#394,.T.);
#425=FACE_BOUND('',#395,.T.);
#426=FACE_BOUND('',#396,.T.);
#427=FACE_BOUND('',#397,.T.);
#428=FACE_BOUND('',#398,.T.);
#429=FACE_BOUND('',#399,.T.);
#430=FACE_BOUND('',#400,.T.);
#431=FACE_BOUND('',#401,.T.);
#432=FACE_BOUND('',#402,.T.);
#433=FACE_BOUND('',#403,.T.);
#434=PLANE('',#485);
#435=PLANE('',#486);
#436=PLANE('',#487);
#437=PLANE('',#488);
#438=PLANE('',#497);
#439=PLANE('',#506);
#440=PLANE('',#507);
#441=PLANE('',#508);
#442=PLANE('',#510);
#443=PLANE('',#512);
#444=PLANE('',#514);
#445=PLANE('',#515);
#446=PLANE('',#517);
#447=PLANE('',#519);
#448=ADVANCED_FACE('',(#404),#434,.T.);
#449=ADVANCED_FACE('',(#405),#435,.F.);
#450=ADVANCED_FACE('',(#406),#436,.T.);
#451=ADVANCED_FACE('',(#407),#437,.T.);
#452=ADVANCED_FACE('',(#408),#438,.T.);
#453=ADVANCED_FACE('',(#409),#439,.T.);
#454=ADVANCED_FACE('',(#410),#440,.F.);
#455=ADVANCED_FACE('',(#411,#412),#441,.F.);
#456=ADVANCED_FACE('',(#413,#414),#442,.T.);
#457=ADVANCED_FACE('',(#415),#443,.T.);
#458=ADVANCED_FACE('',(#416,#417),#20,.F.);
#459=ADVANCED_FACE('',(#418),#444,.F.);
#460=ADVANCED_FACE('',(#419,#420),#445,.F.);
#461=ADVANCED_FACE('',(#421,#422),#446,.T.);
#462=ADVANCED_FACE('',(#423),#447,.T.);
#463=ADVANCED_FACE('',(#424,#425),#21,.F.);
#464=ADVANCED_FACE('',(#426),#22,.F.);
#465=ADVANCED_FACE('',(#427),#23,.F.);
#466=ADVANCED_FACE('',(#428),#24,.T.);
#467=ADVANCED_FACE('',(#429),#25,.T.);
#468=ADVANCED_FACE('',(#430),#26,.T.);
#469=ADVANCED_FACE('',(#431),#27,.T.);
#470=ADVANCED_FACE('',(#432),#28,.F.);
#471=ADVANCED_FACE('',(#433),#29,.F.);
#472=CLOSED_SHELL('',(#448,#449,#450,#451,#452,#453,#454,#455,#456,#457,
#458,#459,#460,#461,#462,#463,#464,#465,#466,#467,#468,#469,#470,#471));
#473=STYLED_ITEM('',(#474),#481);
#474=PRESENTATION_STYLE_ASSIGNMENT((#475));
#475=SURFACE_STYLE_USAGE(.BOTH.,#476);
#476=SURFACE_SIDE_STYLE('',(#477));
#477=SURFACE_STYLE_FILL_AREA(#478);
#478=FILL_AREA_STYLE('',(#479));
#479=FILL_AREA_STYLE_COLOUR('',#480);
#480=COLOUR_RGB('',0.506983280181885,0.531564235687256,0.550000011920929);
#481=MANIFOLD_SOLID_BREP('',#472);
#482=SHAPE_DEFINITION_REPRESENTATION(#802,#483);
#483=SHAPE_REPRESENTATION('1321-¸Ö',(#484),#797);
#484=AXIS2_PLACEMENT_3D('',#663,#529,#530);
#485=AXIS2_PLACEMENT_3D('',#664,#531,#532);
#486=AXIS2_PLACEMENT_3D('',#673,#537,#538);
#487=AXIS2_PLACEMENT_3D('',#682,#543,#544);
#488=AXIS2_PLACEMENT_3D('',#691,#549,#550);
#489=AXIS2_PLACEMENT_3D('',#695,#552,#553);
#490=AXIS2_PLACEMENT_3D('',#699,#555,#556);
#491=AXIS2_PLACEMENT_3D('',#700,#557,#558);
#492=AXIS2_PLACEMENT_3D('',#704,#560,#561);
#493=AXIS2_PLACEMENT_3D('',#712,#565,#566);
#494=AXIS2_PLACEMENT_3D('',#713,#567,#568);
#495=AXIS2_PLACEMENT_3D('',#717,#570,#571);
#496=AXIS2_PLACEMENT_3D('',#718,#572,#573);
#497=AXIS2_PLACEMENT_3D('',#723,#576,#577);
#498=AXIS2_PLACEMENT_3D('',#727,#579,#580);
#499=AXIS2_PLACEMENT_3D('',#735,#584,#585);
#500=AXIS2_PLACEMENT_3D('',#736,#586,#587);
#501=AXIS2_PLACEMENT_3D('',#740,#589,#590);
#502=AXIS2_PLACEMENT_3D('',#741,#591,#592);
#503=AXIS2_PLACEMENT_3D('',#749,#596,#597);
#504=AXIS2_PLACEMENT_3D('',#753,#599,#600);
#505=AXIS2_PLACEMENT_3D('',#754,#601,#602);
#506=AXIS2_PLACEMENT_3D('',#755,#603,#604);
#507=AXIS2_PLACEMENT_3D('',#758,#607,#608);
#508=AXIS2_PLACEMENT_3D('',#761,#611,#612);
#509=AXIS2_PLACEMENT_3D('',#762,#613,#614);
#510=AXIS2_PLACEMENT_3D('',#766,#617,#618);
#511=AXIS2_PLACEMENT_3D('',#767,#619,#620);
#512=AXIS2_PLACEMENT_3D('',#771,#623,#624);
#513=AXIS2_PLACEMENT_3D('',#772,#625,#626);
#514=AXIS2_PLACEMENT_3D('',#773,#627,#628);
#515=AXIS2_PLACEMENT_3D('',#776,#631,#632);
#516=AXIS2_PLACEMENT_3D('',#777,#633,#634);
#517=AXIS2_PLACEMENT_3D('',#781,#637,#638);
#518=AXIS2_PLACEMENT_3D('',#782,#639,#640);
#519=AXIS2_PLACEMENT_3D('',#786,#643,#644);
#520=AXIS2_PLACEMENT_3D('',#787,#645,#646);
#521=AXIS2_PLACEMENT_3D('',#788,#647,#648);
#522=AXIS2_PLACEMENT_3D('',#789,#649,#650);
#523=AXIS2_PLACEMENT_3D('',#790,#651,#652);
#524=AXIS2_PLACEMENT_3D('',#791,#653,#654);
#525=AXIS2_PLACEMENT_3D('',#792,#655,#656);
#526=AXIS2_PLACEMENT_3D('',#793,#657,#658);
#527=AXIS2_PLACEMENT_3D('',#794,#659,#660);
#528=AXIS2_PLACEMENT_3D('',#795,#661,#662);
#529=DIRECTION('',(0.,0.,1.));
#530=DIRECTION('',(1.,0.,0.));
#531=DIRECTION('',(-1.,0.,0.));
#532=DIRECTION('',(0.,0.,1.));
#533=DIRECTION('',(0.,-1.,0.));
#534=DIRECTION('',(0.,0.,-1.));
#535=DIRECTION('',(0.,-1.,0.));
#536=DIRECTION('',(0.,0.,-1.));
#537=DIRECTION('',(0.,-1.,0.));
#538=DIRECTION('',(0.,0.,-1.));
#539=DIRECTION('',(-1.,0.,0.));
#540=DIRECTION('',(0.,0.,1.));
#541=DIRECTION('',(1.,0.,0.));
#542=DIRECTION('',(0.,0.,-1.));
#543=DIRECTION('',(1.,0.,0.));
#544=DIRECTION('',(0.,0.,-1.));
#545=DIRECTION('',(0.,-1.,0.));
#546=DIRECTION('',(0.,0.,1.));
#547=DIRECTION('',(0.,-1.,0.));
#548=DIRECTION('',(0.,0.,1.));
#549=DIRECTION('',(0.,0.,-1.));
#550=DIRECTION('',(-1.,0.,0.));
#551=DIRECTION('',(1.,0.,0.));
#552=DIRECTION('',(0.,0.,-1.));
#553=DIRECTION('',(-1.,0.,0.));
#554=DIRECTION('',(0.,-1.,0.));
#555=DIRECTION('',(0.,0.,-1.));
#556=DIRECTION('',(-1.,0.,0.));
#557=DIRECTION('',(0.,0.,-1.));
#558=DIRECTION('',(-1.,0.,0.));
#559=DIRECTION('',(0.,-1.,0.));
#560=DIRECTION('',(0.,0.,-1.));
#561=DIRECTION('',(-1.,0.,0.));
#562=DIRECTION('',(1.,0.,0.));
#563=DIRECTION('',(0.,-1.,0.));
#564=DIRECTION('',(-1.,0.,0.));
#565=DIRECTION('',(0.,0.,-1.));
#566=DIRECTION('',(-1.,0.,0.));
#567=DIRECTION('',(0.,0.,-1.));
#568=DIRECTION('',(-1.,0.,0.));
#569=DIRECTION('',(1.,0.,0.));
#570=DIRECTION('',(0.,0.,-1.));
#571=DIRECTION('',(-1.,0.,0.));
#572=DIRECTION('',(0.,0.,-1.));
#573=DIRECTION('',(-1.,0.,0.));
#574=DIRECTION('',(-1.,0.,0.));
#575=DIRECTION('',(0.,1.,0.));
#576=DIRECTION('',(0.,0.,1.));
#577=DIRECTION('',(1.,0.,0.));
#578=DIRECTION('',(0.,-1.,0.));
#579=DIRECTION('',(0.,0.,1.));
#580=DIRECTION('',(1.,0.,0.));
#581=DIRECTION('',(-1.,0.,0.));
#582=DIRECTION('',(0.,-1.,0.));
#583=DIRECTION('',(1.,0.,0.));
#584=DIRECTION('',(0.,0.,1.));
#585=DIRECTION('',(1.,0.,0.));
#586=DIRECTION('',(0.,0.,1.));
#587=DIRECTION('',(1.,0.,0.));
#588=DIRECTION('',(-1.,0.,0.));
#589=DIRECTION('',(0.,0.,1.));
#590=DIRECTION('',(1.,0.,0.));
#591=DIRECTION('',(0.,0.,1.));
#592=DIRECTION('',(1.,0.,0.));
#593=DIRECTION('',(-1.,0.,0.));
#594=DIRECTION('',(0.,-1.,0.));
#595=DIRECTION('',(-1.,0.,0.));
#596=DIRECTION('',(0.,0.,1.));
#597=DIRECTION('',(1.,0.,0.));
#598=DIRECTION('',(0.,-1.,0.));
#599=DIRECTION('',(0.,0.,1.));
#600=DIRECTION('',(1.,0.,0.));
#601=DIRECTION('',(0.,0.,1.));
#602=DIRECTION('',(1.,0.,0.));
#603=DIRECTION('',(0.,-1.,0.));
#604=DIRECTION('',(0.,0.,-1.));
#605=DIRECTION('',(0.,0.,1.));
#606=DIRECTION('',(0.,0.,-1.));
#607=DIRECTION('',(1.,0.,0.));
#608=DIRECTION('',(0.,0.,-1.));
#609=DIRECTION('',(0.,0.,1.));
#610=DIRECTION('',(0.,0.,1.));
#611=DIRECTION('',(0.,-1.,0.));
#612=DIRECTION('',(0.,0.,-1.));
#613=DIRECTION('',(0.,-1.,0.));
#614=DIRECTION('',(0.,0.,-1.));
#615=DIRECTION('',(0.,0.,1.));
#616=DIRECTION('',(0.,0.,1.));
#617=DIRECTION('',(0.,-1.,0.));
#618=DIRECTION('',(0.,0.,-1.));
#619=DIRECTION('',(0.,1.,0.));
#620=DIRECTION('',(0.,0.,1.));
#621=DIRECTION('',(0.,0.,1.));
#622=DIRECTION('',(0.,0.,1.));
#623=DIRECTION('',(1.,0.,0.));
#624=DIRECTION('',(0.,0.,-1.));
#625=DIRECTION('',(0.,-1.,0.));
#626=DIRECTION('',(0.,0.,-1.));
#627=DIRECTION('',(-1.,0.,0.));
#628=DIRECTION('',(0.,0.,1.));
#629=DIRECTION('',(0.,0.,-1.));
#630=DIRECTION('',(0.,0.,-1.));
#631=DIRECTION('',(0.,-1.,0.));
#632=DIRECTION('',(0.,0.,-1.));
#633=DIRECTION('',(0.,-1.,0.));
#634=DIRECTION('',(0.,0.,-1.));
#635=DIRECTION('',(0.,0.,-1.));
#636=DIRECTION('',(0.,0.,-1.));
#637=DIRECTION('',(0.,-1.,0.));
#638=DIRECTION('',(0.,0.,-1.));
#639=DIRECTION('',(0.,1.,0.));
#640=DIRECTION('',(0.,0.,1.));
#641=DIRECTION('',(0.,0.,-1.));
#642=DIRECTION('',(0.,0.,-1.));
#643=DIRECTION('',(-1.,0.,0.));
#644=DIRECTION('',(0.,0.,1.));
#645=DIRECTION('',(0.,-1.,0.));
#646=DIRECTION('',(0.,0.,-1.));
#647=DIRECTION('',(0.,0.,1.));
#648=DIRECTION('',(1.,0.,0.));
#649=DIRECTION('',(0.,0.,-1.));
#650=DIRECTION('',(-1.,0.,0.));
#651=DIRECTION('',(0.,0.,-1.));
#652=DIRECTION('',(-1.,0.,0.));
#653=DIRECTION('',(0.,0.,1.));
#654=DIRECTION('',(1.,0.,0.));
#655=DIRECTION('',(0.,0.,1.));
#656=DIRECTION('',(1.,0.,0.));
#657=DIRECTION('',(0.,0.,-1.));
#658=DIRECTION('',(-1.,0.,0.));
#659=DIRECTION('',(0.,0.,1.));
#660=DIRECTION('',(1.,0.,0.));
#661=DIRECTION('',(0.,0.,-1.));
#662=DIRECTION('',(-1.,0.,0.));
#663=CARTESIAN_POINT('',(0.,0.,0.));
#664=CARTESIAN_POINT('',(-164.,2.,15.));
#665=CARTESIAN_POINT('',(-164.,2.,15.));
#666=CARTESIAN_POINT('',(-164.,116.,15.));
#667=CARTESIAN_POINT('',(-164.,3.,15.));
#668=CARTESIAN_POINT('',(-164.,116.,-15.));
#669=CARTESIAN_POINT('',(-164.,116.,-15.));
#670=CARTESIAN_POINT('',(-164.,2.,-15.));
#671=CARTESIAN_POINT('',(-164.,3.,-15.));
#672=CARTESIAN_POINT('',(-164.,3.,15.));
#673=CARTESIAN_POINT('',(0.,2.,0.));
#674=CARTESIAN_POINT('',(100.,2.,15.));
#675=CARTESIAN_POINT('',(99.,2.,15.));
#676=CARTESIAN_POINT('',(-161.,2.,15.));
#677=CARTESIAN_POINT('',(99.,2.,-15.));
#678=CARTESIAN_POINT('',(99.,2.,-15.));
#679=CARTESIAN_POINT('',(-100.,2.,-15.));
#680=CARTESIAN_POINT('',(-161.,2.,-15.));
#681=CARTESIAN_POINT('',(-161.,2.,15.));
#682=CARTESIAN_POINT('',(102.,2.,-15.));
#683=CARTESIAN_POINT('',(102.,2.,-15.));
#684=CARTESIAN_POINT('',(102.,116.,-15.));
#685=CARTESIAN_POINT('',(102.,3.,-15.));
#686=CARTESIAN_POINT('',(102.,116.,15.));
#687=CARTESIAN_POINT('',(102.,116.,15.));
#688=CARTESIAN_POINT('',(102.,2.,15.));
#689=CARTESIAN_POINT('',(102.,3.,15.));
#690=CARTESIAN_POINT('',(102.,3.,-15.));
#691=CARTESIAN_POINT('',(-100.,2.,-15.));
#692=CARTESIAN_POINT('',(0.,119.,-15.));
#693=CARTESIAN_POINT('',(-196.,119.,-15.));
#694=CARTESIAN_POINT('',(-165.,119.,-15.));
#695=CARTESIAN_POINT('',(-165.,116.,-15.));
#696=CARTESIAN_POINT('',(-162.,116.,-15.));
#697=CARTESIAN_POINT('',(-162.,122.,-15.));
#698=CARTESIAN_POINT('',(-162.,3.,-15.));
#699=CARTESIAN_POINT('',(-161.,3.,-15.));
#700=CARTESIAN_POINT('',(99.,3.,-15.));
#701=CARTESIAN_POINT('',(100.,3.,-15.));
#702=CARTESIAN_POINT('',(100.,2.,-15.));
#703=CARTESIAN_POINT('',(100.,116.,-15.));
#704=CARTESIAN_POINT('',(103.,116.,-15.));
#705=CARTESIAN_POINT('',(103.,119.,-15.));
#706=CARTESIAN_POINT('',(0.,119.,-15.));
#707=CARTESIAN_POINT('',(136.,119.,-15.));
#708=CARTESIAN_POINT('',(136.,2.,-15.));
#709=CARTESIAN_POINT('',(136.,117.,-15.));
#710=CARTESIAN_POINT('',(-100.,117.,-15.));
#711=CARTESIAN_POINT('',(103.,117.,-15.));
#712=CARTESIAN_POINT('',(103.,116.,-15.));
#713=CARTESIAN_POINT('',(99.,3.,-15.));
#714=CARTESIAN_POINT('',(99.,0.,-15.));
#715=CARTESIAN_POINT('',(-100.,0.,-15.));
#716=CARTESIAN_POINT('',(-161.,0.,-15.));
#717=CARTESIAN_POINT('',(-161.,3.,-15.));
#718=CARTESIAN_POINT('',(-165.,116.,-15.));
#719=CARTESIAN_POINT('',(-165.,117.,-15.));
#720=CARTESIAN_POINT('',(-100.,117.,-15.));
#721=CARTESIAN_POINT('',(-196.,117.,-15.));
#722=CARTESIAN_POINT('',(-196.,2.,-15.));
#723=CARTESIAN_POINT('',(100.,2.,15.));
#724=CARTESIAN_POINT('',(-162.,122.,15.));
#725=CARTESIAN_POINT('',(-162.,116.,15.));
#726=CARTESIAN_POINT('',(-162.,3.,15.));
#727=CARTESIAN_POINT('',(-165.,116.,15.));
#728=CARTESIAN_POINT('',(-165.,119.,15.));
#729=CARTESIAN_POINT('',(100.,119.,15.));
#730=CARTESIAN_POINT('',(-196.,119.,15.));
#731=CARTESIAN_POINT('',(-196.,2.,15.));
#732=CARTESIAN_POINT('',(-196.,117.,15.));
#733=CARTESIAN_POINT('',(-196.,117.,15.));
#734=CARTESIAN_POINT('',(-165.,117.,15.));
#735=CARTESIAN_POINT('',(-165.,116.,15.));
#736=CARTESIAN_POINT('',(-161.,3.,15.));
#737=CARTESIAN_POINT('',(-161.,0.,15.));
#738=CARTESIAN_POINT('',(100.,0.,15.));
#739=CARTESIAN_POINT('',(99.,0.,15.));
#740=CARTESIAN_POINT('',(99.,3.,15.));
#741=CARTESIAN_POINT('',(103.,116.,15.));
#742=CARTESIAN_POINT('',(103.,117.,15.));
#743=CARTESIAN_POINT('',(136.,117.,15.));
#744=CARTESIAN_POINT('',(136.,117.,15.));
#745=CARTESIAN_POINT('',(136.,2.,15.));
#746=CARTESIAN_POINT('',(136.,119.,15.));
#747=CARTESIAN_POINT('',(100.,119.,15.));
#748=CARTESIAN_POINT('',(103.,119.,15.));
#749=CARTESIAN_POINT('',(103.,116.,15.));
#750=CARTESIAN_POINT('',(100.,116.,15.));
#751=CARTESIAN_POINT('',(100.,122.,15.));
#752=CARTESIAN_POINT('',(100.,3.,15.));
#753=CARTESIAN_POINT('',(99.,3.,15.));
#754=CARTESIAN_POINT('',(-161.,3.,15.));
#755=CARTESIAN_POINT('',(0.,0.,0.));
#756=CARTESIAN_POINT('',(99.,0.,0.));
#757=CARTESIAN_POINT('',(-161.,0.,0.));
#758=CARTESIAN_POINT('',(100.,122.,0.));
#759=CARTESIAN_POINT('',(100.,116.,0.));
#760=CARTESIAN_POINT('',(100.,3.,15.));
#761=CARTESIAN_POINT('',(0.,119.,0.));
#762=CARTESIAN_POINT('',(127.5,119.,-1.56531688652595E-15));
#763=CARTESIAN_POINT('',(127.5,119.,-2.75));
#764=CARTESIAN_POINT('',(103.,119.,0.));
#765=CARTESIAN_POINT('',(136.,119.,0.));
#766=CARTESIAN_POINT('',(136.,117.,-15.));
#767=CARTESIAN_POINT('',(127.5,117.,-1.56531688652595E-15));
#768=CARTESIAN_POINT('',(127.5,117.,2.75));
#769=CARTESIAN_POINT('',(103.,117.,-15.));
#770=CARTESIAN_POINT('',(136.,117.,-15.));
#771=CARTESIAN_POINT('',(136.,2.,-15.));
#772=CARTESIAN_POINT('',(127.5,135.000851825635,-1.56531688652595E-15));
#773=CARTESIAN_POINT('',(-162.,122.,0.));
#774=CARTESIAN_POINT('',(-162.,116.,0.));
#775=CARTESIAN_POINT('',(-162.,3.,-15.));
#776=CARTESIAN_POINT('',(0.,119.,0.));
#777=CARTESIAN_POINT('',(-187.5,119.,1.00288700954909E-15));
#778=CARTESIAN_POINT('',(-187.5,119.,-2.75));
#779=CARTESIAN_POINT('',(-165.,119.,0.));
#780=CARTESIAN_POINT('',(-196.,119.,0.));
#781=CARTESIAN_POINT('',(-196.,117.,15.));
#782=CARTESIAN_POINT('',(-187.5,117.,1.00288700954909E-15));
#783=CARTESIAN_POINT('',(-187.5,117.,2.75));
#784=CARTESIAN_POINT('',(-165.,117.,15.));
#785=CARTESIAN_POINT('',(-196.,117.,15.));
#786=CARTESIAN_POINT('',(-196.,2.,15.));
#787=CARTESIAN_POINT('',(-187.5,136.16164904656,1.00288700954909E-15));
#788=CARTESIAN_POINT('',(-161.,3.,0.));
#789=CARTESIAN_POINT('',(99.,3.,0.));
#790=CARTESIAN_POINT('',(-161.,3.,0.));
#791=CARTESIAN_POINT('',(99.,3.,0.));
#792=CARTESIAN_POINT('',(103.,116.,0.));
#793=CARTESIAN_POINT('',(-165.,116.,0.));
#794=CARTESIAN_POINT('',(-165.,116.,15.));
#795=CARTESIAN_POINT('',(103.,116.,-15.));
#796=MECHANICAL_DESIGN_GEOMETRIC_PRESENTATION_REPRESENTATION('',(#473),
#797);
#797=(
GEOMETRIC_REPRESENTATION_CONTEXT(3)
GLOBAL_UNCERTAINTY_ASSIGNED_CONTEXT((#798))
GLOBAL_UNIT_ASSIGNED_CONTEXT((#801,#800,#799))
REPRESENTATION_CONTEXT('1321-¸Ödge','TOP_LEVEL_ASSEMBLY_PART')
);
#798=UNCERTAINTY_MEASURE_WITH_UNIT(LENGTH_MEASURE(0.005),#801,
'DISTANCE_ACCURACY_VALUE','Maximum Tolerance applied to model');
#799=(
NAMED_UNIT(*)
SI_UNIT($,.STERADIAN.)
SOLID_ANGLE_UNIT()
);
#800=(
NAMED_UNIT(*)
PLANE_ANGLE_UNIT()
SI_UNIT($,.RADIAN.)
);
#801=(
LENGTH_UNIT()
NAMED_UNIT(*)
SI_UNIT(.MILLI.,.METRE.)
);
#802=PRODUCT_DEFINITION_SHAPE('','',#803);
#803=PRODUCT_DEFINITION('','',#805,#804);
#804=PRODUCT_DEFINITION_CONTEXT('',#811,'design');
#805=PRODUCT_DEFINITION_FORMATION_WITH_SPECIFIED_SOURCE('','',#807,
 .NOT_KNOWN.);
#806=PRODUCT_RELATED_PRODUCT_CATEGORY('','',(#807));
#807=PRODUCT('1321-¸Ödge','1321-¸Ödge','1321-¸Ödge',(#809));
#808=PRODUCT_CATEGORY('','');
#809=PRODUCT_CONTEXT('',#811,'mechanical');
#810=APPLICATION_PROTOCOL_DEFINITION('international standard',
'automotive_design',2010,#811);
#811=APPLICATION_CONTEXT(
'core data for automotive mechanical design processes');
ENDSEC;
END-ISO-10303-21;
